<svg width="32" height="33" viewBox="0 0 32 33" fill="none" xmlns="http://www.w3.org/2000/svg">
<path d="M15.4987 9.92328C14.3307 9.92328 12.5227 8.59528 10.6187 8.64328C8.10675 8.67528 5.80275 10.0993 4.50675 12.3553C1.89875 16.8833 3.83475 23.5713 6.37875 27.2513C7.62675 29.0433 9.09875 31.0593 11.0507 30.9953C12.9227 30.9153 13.6267 29.7793 15.8987 29.7793C18.1547 29.7793 18.7947 30.9953 20.7787 30.9473C22.7947 30.9153 24.0747 29.1233 25.3067 27.3153C26.7307 25.2353 27.3228 23.2193 27.3547 23.1073C27.3067 23.0913 23.4347 21.6033 23.3867 17.1233C23.3547 13.3793 26.4427 11.5873 26.5868 11.5073C24.8267 8.93128 22.1227 8.64328 21.1787 8.57928C18.7147 8.38728 16.6507 9.92328 15.4987 9.92328ZM19.6587 6.14728C20.6987 4.89928 21.3867 3.15528 21.1947 1.42728C19.7067 1.49128 17.9147 2.41928 16.8427 3.66728C15.8827 4.77128 15.0507 6.54728 15.2747 8.24328C16.9227 8.37128 18.6187 7.39528 19.6587 6.14728Z" fill="#232F3B"/>
</svg>