<svg width="72" height="72" viewBox="0 0 72 72" fill="none" xmlns="http://www.w3.org/2000/svg">
<path d="M64.9688 6.1875H58.2656V4.21875C58.2656 1.89253 56.373 0 54.0468 0C51.7206 0 49.8281 1.89253 49.8281 4.21875V6.1875H26.2031V4.21875C26.2031 1.89253 24.3105 0 21.9843 0C19.6581 0 17.7656 1.89253 17.7656 4.21875V6.23953C17.646 6.20648 17.5208 6.1875 17.3907 6.1875H11.7876C7.91058 6.1875 4.75636 9.34172 4.75636 13.2188V37.1718C4.75636 37.9485 5.38608 38.5781 6.16261 38.5781C6.93914 38.5781 7.56886 37.9485 7.56886 37.1718V20.6719H58.2656C59.0421 20.6719 59.6718 20.0423 59.6718 19.2656C59.6718 18.489 59.0421 17.8594 58.2656 17.8594H7.56886V13.2188C7.56886 10.8925 9.46139 9 11.7876 9H17.3907C17.5208 9 17.646 8.98088 17.7656 8.94797V10.7578C17.7656 13.084 19.6581 14.9766 21.9843 14.9766C24.3105 14.9766 26.2031 13.084 26.2031 10.7578V9H49.8281V10.7578C49.8281 13.084 51.7206 14.9766 54.0468 14.9766C56.373 14.9766 58.2656 13.084 58.2656 10.7578V9H64.9688C67.295 9 69.1875 10.8925 69.1875 13.2188V66.6554C69.1875 68.0515 68.0517 69.1875 66.6554 69.1875C65.2591 69.1875 64.1233 68.0515 64.1233 66.6554V63.0176C64.1233 62.2409 63.4936 61.6113 62.7171 61.6113H46.3594C45.5829 61.6113 44.9532 62.2409 44.9532 63.0176C44.9532 63.7943 45.5829 64.4238 46.3594 64.4238H61.3108V66.6554C61.3108 67.571 61.5426 68.4333 61.95 69.1875H5.34375C3.94805 69.1875 2.8125 68.052 2.8125 66.6562V64.4238H34.2879C35.0644 64.4238 35.6941 63.7943 35.6941 63.0176C35.6941 62.2409 35.0644 61.6113 34.2879 61.6113H20.2372C22.6945 59.4951 24.2549 56.3647 24.2549 52.875C24.2549 46.5166 19.082 41.3438 12.7236 41.3438C6.36525 41.3438 1.19236 46.5166 1.19236 52.875C1.19236 56.3647 2.75273 59.4951 5.21002 61.6113H1.40625C0.629719 61.6113 0 62.2409 0 63.0176V66.6562C0 69.6028 2.39723 72 5.34375 72H66.6554C69.6023 72 72 69.6025 72 66.6554V13.2188C72 9.34172 68.8458 6.1875 64.9688 6.1875ZM23.3906 10.7578C23.3906 11.5332 22.7597 12.1641 21.9843 12.1641C21.2089 12.1641 20.5781 11.5332 20.5781 10.7578V4.21875C20.5781 3.44334 21.2089 2.8125 21.9843 2.8125C22.7597 2.8125 23.3906 3.44334 23.3906 4.21875V10.7578ZM55.4531 10.7578C55.4531 11.5332 54.8222 12.1641 54.0468 12.1641C53.2714 12.1641 52.6406 11.5332 52.6406 10.7578V4.21875C52.6406 3.44334 53.2714 2.8125 54.0468 2.8125C54.8222 2.8125 55.4531 3.44334 55.4531 4.21875V10.7578ZM4.00486 52.875C4.00486 48.0675 7.91606 44.1562 12.7236 44.1562C17.5312 44.1562 21.4424 48.0675 21.4424 52.875C21.4424 57.6825 17.5312 61.5938 12.7236 61.5938C7.91606 61.5938 4.00486 57.6825 4.00486 52.875Z" fill="#F95703"/>
<path d="M65.856 18.2714C65.5945 18.0098 65.2317 17.8594 64.8619 17.8594C64.4919 17.8594 64.1292 18.0098 63.8677 18.2714C63.6061 18.533 63.4556 18.8958 63.4556 19.2656C63.4556 19.6355 63.606 19.9983 63.8677 20.2598C64.1294 20.5214 64.4919 20.6719 64.8619 20.6719C65.2317 20.6719 65.5945 20.5214 65.856 20.2598C66.1175 19.9983 66.2681 19.6355 66.2681 19.2656C66.2681 18.8958 66.1177 18.533 65.856 18.2714Z" fill="#F95703"/>
<path d="M41.9975 62.0229C41.7361 61.7614 41.3733 61.6123 41.0035 61.6123C40.6336 61.6123 40.2708 61.7614 40.0092 62.0229C39.7477 62.2859 39.5972 62.6473 39.5972 63.0171C39.5972 63.3884 39.7475 63.7498 40.0092 64.0128C40.2708 64.2743 40.6336 64.4234 41.0035 64.4234C41.3733 64.4234 41.7361 64.2743 41.9975 64.0128C42.2591 63.7498 42.4097 63.387 42.4097 63.0171C42.4097 62.6473 42.2592 62.2859 41.9975 62.0229Z" fill="#F95703"/>
<path d="M31.8157 42.75C28.8692 42.75 26.472 45.1472 26.472 48.0938C26.472 51.0403 28.8692 53.4375 31.8157 53.4375C34.7622 53.4375 37.1595 51.0403 37.1595 48.0938C37.1595 45.1472 34.7622 42.75 31.8157 42.75ZM31.8157 50.625C30.42 50.625 29.2845 49.4895 29.2845 48.0938C29.2845 46.698 30.42 45.5625 31.8157 45.5625C33.2114 45.5625 34.347 46.698 34.347 48.0938C34.347 49.4895 33.2114 50.625 31.8157 50.625Z" fill="#F95703"/>
<path d="M44.9407 42.75C41.9941 42.75 39.5969 45.1472 39.5969 48.0938C39.5969 51.0403 41.9941 53.4375 44.9407 53.4375C47.8872 53.4375 50.2844 51.0403 50.2844 48.0938C50.2844 45.1472 47.8872 42.75 44.9407 42.75ZM44.9407 50.625C43.545 50.625 42.4094 49.4895 42.4094 48.0938C42.4094 46.698 43.545 45.5625 44.9407 45.5625C46.3364 45.5625 47.4719 46.698 47.4719 48.0938C47.4719 49.4895 46.3364 50.625 44.9407 50.625Z" fill="#F95703"/>
<path d="M58.0658 42.75C55.1192 42.75 52.722 45.1472 52.722 48.0938C52.722 51.0403 55.1192 53.4375 58.0658 53.4375C61.0123 53.4375 63.4095 51.0403 63.4095 48.0938C63.4095 45.1472 61.0123 42.75 58.0658 42.75ZM58.0658 50.625C56.67 50.625 55.5345 49.4895 55.5345 48.0938C55.5345 46.698 56.67 45.5625 58.0658 45.5625C59.4615 45.5625 60.597 46.698 60.597 48.0938C60.597 49.4895 59.4615 50.625 58.0658 50.625Z" fill="#F95703"/>
<path d="M18.6908 28.125C15.7442 28.125 13.347 30.5222 13.347 33.4688C13.347 36.4153 15.7442 38.8125 18.6908 38.8125C21.6373 38.8125 24.0345 36.4153 24.0345 33.4688C24.0345 30.5222 21.6373 28.125 18.6908 28.125ZM18.6908 36C17.2951 36 16.1595 34.8645 16.1595 33.4688C16.1595 32.073 17.2951 30.9375 18.6908 30.9375C20.0865 30.9375 21.222 32.073 21.222 33.4688C21.222 34.8645 20.0865 36 18.6908 36Z" fill="#F95703"/>
<path d="M44.9407 28.125C41.9941 28.125 39.5969 30.5222 39.5969 33.4688C39.5969 36.4153 41.9941 38.8125 44.9407 38.8125C47.8872 38.8125 50.2844 36.4153 50.2844 33.4688C50.2844 30.5222 47.8872 28.125 44.9407 28.125ZM44.9407 36C43.545 36 42.4094 34.8645 42.4094 33.4688C42.4094 32.073 43.545 30.9375 44.9407 30.9375C46.3364 30.9375 47.4719 32.073 47.4719 33.4688C47.4719 34.8645 46.3364 36 44.9407 36Z" fill="#F95703"/>
<path d="M58.0658 28.125C55.1192 28.125 52.722 30.5222 52.722 33.4688C52.722 36.4153 55.1192 38.8125 58.0658 38.8125C61.0123 38.8125 63.4095 36.4153 63.4095 33.4688C63.4095 30.5222 61.0123 28.125 58.0658 28.125ZM58.0658 36C56.67 36 55.5345 34.8645 55.5345 33.4688C55.5345 32.073 56.67 30.9375 58.0658 30.9375C59.4615 30.9375 60.597 32.073 60.597 33.4688C60.597 34.8645 59.4615 36 58.0658 36Z" fill="#F95703"/>
<path d="M31.8157 28.125C28.8692 28.125 26.472 30.5222 26.472 33.4688C26.472 36.4153 28.8692 38.8125 31.8157 38.8125C34.7622 38.8125 37.1595 36.4153 37.1595 33.4688C37.1595 30.5222 34.7622 28.125 31.8157 28.125ZM31.8157 36C30.42 36 29.2845 34.8645 29.2845 33.4688C29.2845 32.073 30.42 30.9375 31.8157 30.9375C33.2114 30.9375 34.347 32.073 34.347 33.4688C34.347 34.8645 33.2114 36 31.8157 36Z" fill="#F95703"/>
<path d="M17.7334 49.448C17.1841 48.8988 16.294 48.8988 15.7445 49.448L11.165 54.0277L9.59994 52.4627C9.05066 51.9136 8.1605 51.9136 7.61108 52.4627C7.06194 53.0118 7.06194 53.9023 7.61108 54.4516L10.1706 57.0108C10.4344 57.2745 10.792 57.4227 11.165 57.4227C11.5379 57.4227 11.8955 57.2745 12.1593 57.0108L17.7334 51.4367C18.2825 50.8876 18.2825 49.9971 17.7334 49.448Z" fill="#F95703"/>
</svg>
