<svg width="12" height="12" viewBox="0 0 12 12" fill="none" xmlns="http://www.w3.org/2000/svg">
<path fill-rule="evenodd" clip-rule="evenodd" d="M5.29764 11.7883C5.32703 11.808 5.35946 11.8211 5.38986 11.8383C5.43142 11.861 5.47145 11.8858 5.51554 11.904C5.55659 11.9212 5.59915 11.9308 5.64122 11.9429C5.67821 11.954 5.71368 11.9682 5.75169 11.9757C5.91537 12.0081 6.08412 12.0081 6.2478 11.9757C6.28632 11.9682 6.32179 11.954 6.35878 11.9429C6.40084 11.9308 6.44341 11.9212 6.48395 11.904C6.52855 11.8858 6.56858 11.861 6.61013 11.8378C6.64105 11.8211 6.67297 11.808 6.70236 11.7883C6.7723 11.7418 6.83767 11.6887 6.89696 11.6291L11.6291 6.91128C12.1236 6.41812 12.1236 5.61876 11.6291 5.1251C11.1345 4.63144 10.3323 4.63144 9.83767 5.1251L7.77365 7.18262L7.26689 1.26321C7.26689 0.565919 6.69983 0 6 0C5.30017 0 4.73311 0.565919 4.73311 1.26321L4.22635 7.18262L2.16284 5.1251C1.66774 4.63144 0.865541 4.63144 0.370946 5.1251C0.123649 5.37168 0 5.69506 0 6.01844C0 6.34132 0.123649 6.6647 0.370946 6.91128L5.10304 11.6291C5.16233 11.6887 5.2277 11.7418 5.29764 11.7883Z" fill="white"/>
</svg>
