<svg width="32" height="32" viewBox="0 0 32 32" fill="none" xmlns="http://www.w3.org/2000/svg">
<path d="M4.65589 10.7533L6.37055 25.3333H25.6292L27.3439 10.7533L21.9972 14.3173L15.9999 5.92128L10.0026 14.3173L4.65589 10.7533ZM3.73455 6.93328L9.33322 10.6666L14.9146 2.85328C15.0379 2.68044 15.2007 2.53955 15.3895 2.44235C15.5783 2.34515 15.7876 2.29443 15.9999 2.29443C16.2122 2.29443 16.4215 2.34515 16.6103 2.44235C16.799 2.53955 16.9619 2.68044 17.0852 2.85328L22.6666 10.6666L28.2666 6.93328C28.4785 6.79227 28.7264 6.71489 28.9809 6.71026C29.2354 6.70564 29.4859 6.77396 29.7028 6.90717C29.9198 7.04038 30.094 7.23291 30.205 7.46199C30.316 7.69108 30.3591 7.94715 30.3292 8.19995L28.1386 26.8226C28.1003 27.1469 27.9444 27.446 27.7004 27.663C27.4563 27.88 27.1411 27.9999 26.8146 27.9999H5.18522C4.85864 27.9999 4.54344 27.88 4.29939 27.663C4.05535 27.446 3.89943 27.1469 3.86122 26.8226L1.67055 8.19861C1.64095 7.94592 1.68427 7.69004 1.79538 7.46117C1.9065 7.2323 2.08077 7.03999 2.29764 6.90696C2.5145 6.77393 2.7649 6.70571 3.01927 6.71038C3.27365 6.71504 3.52138 6.79239 3.73322 6.93328H3.73455ZM15.9999 19.9999C15.2926 19.9999 14.6144 19.719 14.1143 19.2189C13.6142 18.7188 13.3332 18.0405 13.3332 17.3333C13.3332 16.626 13.6142 15.9478 14.1143 15.4477C14.6144 14.9476 15.2926 14.6666 15.9999 14.6666C16.7071 14.6666 17.3854 14.9476 17.8855 15.4477C18.3856 15.9478 18.6666 16.626 18.6666 17.3333C18.6666 18.0405 18.3856 18.7188 17.8855 19.2189C17.3854 19.719 16.7071 19.9999 15.9999 19.9999Z" fill="#F95703"/>
</svg>
