<svg width="24" height="24" viewBox="0 0 24 24" fill="none" xmlns="http://www.w3.org/2000/svg">
<path d="M3.97714 7.959C4.74123 6.46792 5.9134 5.21446 7.36264 4.33872C8.81188 3.46298 10.4811 2.99947 12.1837 3C14.6587 3 16.7379 3.891 18.3276 5.3445L15.6946 7.9257C14.7422 7.0338 13.5318 6.5793 12.1837 6.5793C9.79133 6.5793 7.76633 8.1633 7.04541 10.29C6.86174 10.83 6.75704 11.406 6.75704 12C6.75704 12.594 6.86174 13.17 7.04541 13.71C7.76725 15.8376 9.79133 17.4207 12.1837 17.4207C13.4189 17.4207 14.4704 17.1012 15.2933 16.5612C15.7703 16.2534 16.1787 15.854 16.4938 15.3871C16.8088 14.9203 17.024 14.3957 17.1263 13.845H12.1837V10.3638H20.8329C20.9412 10.9524 21 11.5662 21 12.2043C21 14.9457 19.999 17.2533 18.2614 18.8193C16.7424 20.1945 14.6633 21 12.1837 21C10.9775 21.0005 9.7831 20.768 8.66866 20.3159C7.55423 19.8638 6.54164 19.2008 5.68876 18.365C4.83588 17.5292 4.15943 16.5369 3.69808 15.4447C3.23673 14.3526 2.99952 13.182 3 12C3 10.5474 3.35449 9.174 3.97714 7.959Z" fill="white"/>
</svg>
