<svg width="148" height="148" viewBox="0 0 148 148" fill="none" xmlns="http://www.w3.org/2000/svg">
<path d="M14.0002 72.7405C14.0002 65.1518 20.2448 59 27.9479 59H111.053C118.756 59 125 65.1518 125 72.7405V120.26C125 127.848 118.756 134 111.053 134H27.9479C20.2448 134 14.0002 127.848 14.0002 120.26V72.7405Z" fill="#FFF6F1"/>
<path d="M12.0465 49.2532V50.3374C12.0465 50.4515 12.0012 50.5609 11.9205 50.6416C11.8398 50.7223 11.7304 50.7676 11.6163 50.7676H10.7558C10.6417 50.7676 10.5323 50.7223 10.4516 50.6416C10.3709 50.5609 10.3256 50.4515 10.3256 50.3374V50.1051C10.3154 49.6812 10.1898 49.2682 9.9624 48.9104C9.73498 48.5526 9.41432 48.2635 9.0349 48.0744C8.88002 47.9883 8.74234 47.8851 8.60467 47.7904V55.5346C8.53427 56.3824 8.13452 57.1688 7.49112 57.7254C6.84773 58.2819 6.01189 58.5642 5.16281 58.5118C4.3082 58.5639 3.46753 58.2769 2.82319 57.7131C2.17884 57.1493 1.78278 56.3541 1.72095 55.5002C1.78278 54.6462 2.17884 53.8511 2.82319 53.2873C3.46753 52.7235 4.3082 52.4365 5.16281 52.4886C5.76217 52.4873 6.35283 52.632 6.88374 52.9102V43.4537C6.88374 43.3396 6.92907 43.2301 7.00975 43.1494C7.09043 43.0688 7.19987 43.0234 7.31397 43.0234H8.17444C8.28854 43.0234 8.39797 43.0688 8.47866 43.1494C8.55934 43.2301 8.60467 43.3396 8.60467 43.4537V43.5999C8.59585 44.0271 8.70633 44.4483 8.92369 44.8161C9.14106 45.184 9.45669 45.4839 9.83513 45.6823C10.5004 46.0117 11.0601 46.5207 11.4509 47.1518C11.8418 47.7829 12.0481 48.5109 12.0465 49.2532Z" fill="#FF8445"/>
<path opacity="0.5" d="M136.814 33.7649V34.8491C136.814 34.9632 136.769 35.0726 136.688 35.1533C136.607 35.234 136.498 35.2793 136.384 35.2793H135.523C135.409 35.2793 135.3 35.234 135.219 35.1533C135.138 35.0726 135.093 34.9632 135.093 34.8491V34.6168C135.083 34.1929 134.957 33.7799 134.73 33.4221C134.502 33.0643 134.182 32.7753 133.802 32.5861C133.647 32.5 133.51 32.3968 133.372 32.3021V40.0463C133.302 40.8941 132.902 41.6806 132.258 42.2371C131.615 42.7936 130.779 43.076 129.93 43.0235C129.076 43.0756 128.235 42.7886 127.591 42.2248C126.946 41.661 126.55 40.8659 126.488 40.0119C126.55 39.1579 126.946 38.3628 127.591 37.799C128.235 37.2352 129.076 36.9482 129.93 37.0003C130.53 36.999 131.12 37.1437 131.651 37.4219V27.9654C131.651 27.8513 131.696 27.7419 131.777 27.6612C131.858 27.5805 131.967 27.5352 132.081 27.5352H132.942C133.056 27.5352 133.165 27.5805 133.246 27.6612C133.327 27.7419 133.372 27.8513 133.372 27.9654V28.1117C133.363 28.5388 133.474 28.96 133.691 29.3279C133.908 29.6957 134.224 29.9957 134.602 30.194C135.268 30.5234 135.827 31.0324 136.218 31.6636C136.609 32.2947 136.815 33.0226 136.814 33.7649Z" fill="#FF8445"/>
<path d="M146.279 105.198V106.734C146.279 106.895 146.215 107.05 146.101 107.164C145.986 107.279 145.831 107.343 145.67 107.343H144.451C144.289 107.343 144.134 107.279 144.02 107.164C143.905 107.05 143.841 106.895 143.841 106.734V106.404C143.827 105.804 143.649 105.219 143.327 104.712C143.004 104.205 142.55 103.796 142.013 103.528C141.793 103.406 141.598 103.259 141.403 103.125V114.096C141.303 115.297 140.737 116.411 139.826 117.2C138.914 117.988 137.73 118.388 136.527 118.314C135.316 118.388 134.125 117.981 133.213 117.182C132.3 116.384 131.739 115.257 131.651 114.047C131.739 112.838 132.3 111.711 133.213 110.913C134.125 110.114 135.316 109.707 136.527 109.781C137.376 109.779 138.213 109.984 138.965 110.378V96.9816C138.965 96.8199 139.029 96.6649 139.144 96.5506C139.258 96.4363 139.413 96.3721 139.575 96.3721H140.794C140.955 96.3721 141.11 96.4363 141.225 96.5506C141.339 96.6649 141.403 96.8199 141.403 96.9816V97.1888C141.391 97.794 141.547 98.3906 141.855 98.9117C142.163 99.4329 142.61 99.8578 143.146 100.139C144.089 100.605 144.882 101.327 145.435 102.221C145.989 103.115 146.281 104.146 146.279 105.198Z" fill="#F95703"/>
<path d="M123.159 62.838C123.158 62.8369 123.158 62.836 123.157 62.8351C120.368 59.3438 116.248 57.3034 111.802 57.1855V54.388C111.802 53.4646 111.054 52.7163 110.13 52.7163C109.207 52.7163 108.459 53.4646 108.459 54.388V57.1742H30.3046V47.7013C30.3046 43.0924 34.054 39.3429 38.6629 39.3429H100.1C104.709 39.3429 108.459 43.0924 108.459 47.7013C108.459 48.6248 109.207 49.373 110.13 49.373C111.054 49.373 111.802 48.6248 111.802 47.7013C111.802 41.4359 106.852 36.3058 100.658 36.0136V33.2135C100.658 26.7612 95.4081 21.5117 88.9559 21.5117H49.8075C43.3552 21.5117 38.1057 26.7612 38.1057 33.2135V36.0136C31.9112 36.3056 26.9612 41.4359 26.9612 47.7013V57.1844C18.8527 57.4008 12.3218 64.0595 12.3218 72.2192V74.4432C12.3218 75.3667 13.07 76.1149 13.9935 76.1149C14.9169 76.1149 15.6651 75.3667 15.6651 74.4432V72.2192C15.6651 65.767 20.9146 60.5175 27.3669 60.5175H111.396C114.975 60.5177 118.311 62.1239 120.547 64.9243C120.548 64.9256 120.549 64.9267 120.55 64.9281C122.217 67.0177 123.098 69.5392 123.098 72.2192V120.586C123.098 127.039 117.849 132.288 111.396 132.288H27.3669C20.9146 132.288 15.6651 127.039 15.6651 120.586V81.1299C15.6651 80.2065 14.9169 79.4583 13.9935 79.4583C13.07 79.4583 12.3218 80.2065 12.3218 81.1299V120.586C12.3218 128.882 19.0709 135.632 27.3669 135.632H111.396C119.692 135.632 126.442 128.882 126.442 120.586V72.2192C126.442 68.8206 125.276 65.4891 123.159 62.838ZM41.4491 33.2135C41.4491 28.6045 45.1985 24.8551 49.8075 24.8551H88.9559C93.5648 24.8551 97.3143 28.6045 97.3143 33.2135V35.9996H41.4491V33.2135Z" fill="#F95703"/>
<path d="M91.3417 106.979V80.2552C91.3417 75.1211 86.4798 71.3844 81.5152 72.7148H81.515L65.8451 76.9136C61.9517 77.9569 59.2324 81.5007 59.2324 85.5317V104.332C53.3294 104.935 49.2989 108.948 47.964 112.723C45.5432 119.569 51.4749 125.027 59.1085 123.235C65.3824 121.762 69.266 116.438 69.266 112.349V94.1952L81.3077 90.9686V99.1685C75.3924 99.7853 71.3628 103.804 70.0354 107.576C67.3035 115.34 75.3291 121.271 84.1299 117.016C88.511 114.897 91.3417 110.958 91.3417 106.979ZM87.9984 106.979C87.9984 109.684 85.9088 112.442 82.6751 114.005C76.8247 116.833 71.3937 113.787 73.1893 108.685C74.2862 105.568 77.9661 102.431 82.8913 102.431C84.0194 102.431 84.6512 101.594 84.6512 100.759V88.7899C84.6512 87.6917 83.6079 86.8908 82.5469 87.1752L67.1619 91.2976C66.4313 91.4933 65.9229 92.1557 65.9229 92.9122V112.349C65.9229 115.117 62.8107 118.931 58.3444 119.98C53.4994 121.116 49.5298 118.323 51.1163 113.837C52.2169 110.724 55.8821 107.598 60.7764 107.598C60.8345 107.598 60.8847 107.599 60.9041 107.599C61.8264 107.599 62.5758 106.85 62.5758 105.927V85.5314C62.5758 83.011 64.276 80.795 66.7106 80.1426L82.3802 75.9438C85.2174 75.1844 87.9984 77.3157 87.9984 80.2549V106.979Z" fill="#F95703"/>
</svg>
