<svg width="148" height="148" viewBox="0 0 148 148" fill="none" xmlns="http://www.w3.org/2000/svg">
<path d="M126.093 93.311C126.093 118.215 105.904 138.404 81.0002 138.404C56.0962 138.404 35.9075 118.215 35.9075 93.311C35.9075 68.407 56.0962 48.2183 81.0002 48.2183C105.904 48.2183 126.093 68.407 126.093 93.311Z" fill="#FFF6F1"/>
<path d="M88.2946 76.0698C88.2946 80.4647 85.0288 84.0274 81.0002 84.0274C76.9716 84.0274 73.7058 80.4647 73.7058 76.0698C73.7058 71.675 76.9716 68.1123 81.0002 68.1123C85.0288 68.1123 88.2946 71.675 88.2946 76.0698Z" fill="white"/>
<path d="M97.2478 93.6127C96.9828 91.9642 95.8312 90.6207 94.2431 90.1058C93.2105 89.7713 92.1229 89.8283 91.1631 90.2331L77.3187 76.3886C77.318 76.388 77.3171 76.3873 77.3164 76.3866C76.2731 75.3444 74.8866 74.7703 73.4117 74.7703C71.9358 74.7703 70.5481 75.3451 69.5048 76.3886L60.4392 85.4542C59.4797 85.0497 58.3918 84.9926 57.3596 85.327C55.7714 85.8416 54.6197 87.1854 54.3543 88.8338L53.3092 95.3249C53.0807 96.7444 53.5325 98.1417 54.5493 99.1585C55.3927 100.002 56.4982 100.457 57.6608 100.457C57.8997 100.457 58.1408 100.438 58.3829 100.399L64.8737 99.3535C66.5222 99.0881 67.8659 97.9366 68.3806 96.3484C68.7151 95.3164 68.6578 94.2283 68.2533 93.2686L73.412 88.1097L83.3495 98.0472C82.9449 99.0069 82.8876 100.095 83.222 101.127C83.7368 102.715 85.0804 103.867 86.7288 104.132L93.2199 105.177C93.4619 105.216 93.7029 105.235 93.9418 105.235C95.1044 105.235 96.2099 104.781 97.0533 103.937C98.0703 102.92 98.5221 101.523 98.2934 100.104L97.2478 93.6127ZM74.9543 81.8386L64.9372 91.8559C64.2849 92.5083 64.2844 93.5657 64.9361 94.2187C65.3583 94.6417 65.2611 95.1281 65.1998 95.3175C65.1385 95.507 64.9319 95.9577 64.3419 96.0526L57.8511 97.0977C57.5041 97.1543 57.1619 97.0431 56.913 96.7944C56.6642 96.5456 56.5537 96.2037 56.6096 95.8565L57.6547 89.3656C57.7497 88.7754 58.2006 88.569 58.39 88.5075C58.4665 88.4828 58.5911 88.4523 58.7404 88.4523C58.9615 88.4523 59.2363 88.5191 59.4888 88.7712C60.1419 89.4229 61.1995 89.4225 61.8516 88.7701L71.8689 78.753C72.2811 78.3409 72.8289 78.1138 73.4117 78.1138C73.9944 78.1138 74.542 78.3407 74.9539 78.7523C74.9541 78.7526 74.9543 78.7528 74.9545 78.753L74.9559 78.7543C75.3671 79.1662 75.5938 79.7139 75.5938 80.296C75.5936 80.8784 75.3667 81.4263 74.9543 81.8386ZM94.6889 101.573C94.4404 101.822 94.0992 101.933 93.751 101.876L87.26 100.831C86.67 100.736 86.4634 100.285 86.4019 100.096C86.3406 99.9065 86.2434 99.4202 86.6658 98.9974C87.3175 98.3443 87.317 97.2867 86.6646 96.6346L75.7757 85.7455L77.3185 84.2027C77.8581 83.6634 78.2708 83.0315 78.5452 82.3434L89.7503 93.5485C90.4029 94.2009 91.4602 94.2013 92.1133 93.5496C92.5363 93.1275 93.0229 93.2247 93.2123 93.2859C93.4018 93.3472 93.8522 93.5538 93.9474 94.1438L94.9927 100.635C95.0484 100.982 94.9377 101.324 94.6889 101.573ZM130.224 43.242C129.793 40.2926 128.821 37.5061 127.365 34.9786C127.444 34.9079 127.525 34.8397 127.6 34.7648C129.986 32.3782 129.986 28.4944 127.6 26.1078C125.213 23.7207 121.329 23.7209 118.942 26.1078C118.868 26.1827 118.799 26.2636 118.729 26.342C116.201 24.8861 113.415 23.9139 110.465 23.4835C105.552 22.7665 100.638 23.595 96.2565 25.8791C94.3506 26.8725 93.0701 28.6631 92.7429 30.7921C92.5368 32.133 92.7311 33.4601 93.2812 34.6402C87.0719 31.93 80.3515 30.5236 73.4115 30.5236C66.4691 30.5236 59.7463 31.9308 53.5352 34.6436C54.2348 33.1409 54.363 31.4073 53.839 29.7642C53.5583 28.8847 52.618 28.399 51.7385 28.6794C50.859 28.96 50.3733 29.9004 50.6537 30.7799C51.0404 31.9921 50.7239 33.3018 49.8282 34.1978L27.314 56.7122C26.5468 57.4796 25.4906 57.8255 24.416 57.6599C23.3509 57.4963 22.4558 56.8569 21.9599 55.9056C18.5036 49.2752 19.0361 41.473 23.0963 35.4575C23.1157 35.4301 23.1356 35.4036 23.1534 35.3751C23.8568 34.3442 24.6612 33.3647 25.5708 32.4553C30.7205 27.3056 38.2743 25.3511 45.2838 27.3541C46.1711 27.6082 47.0967 27.094 47.3504 26.2061C47.604 25.3185 47.09 24.3931 46.2023 24.1395C40.0378 22.3783 33.5128 23.2424 28.1001 26.3483C28.0277 26.2676 27.9577 26.1847 27.8808 26.1078C25.4944 23.7209 21.6104 23.7211 19.2237 26.1078C16.8371 28.4944 16.8371 32.3782 19.2237 34.7648C19.2988 34.8397 19.3798 34.9079 19.4582 34.9788C18.0023 37.5061 17.0299 40.2926 16.5995 43.242C15.8825 48.1557 16.7109 53.069 18.9953 57.4511C19.9887 59.357 21.7795 60.6374 23.9083 60.9646C24.2589 61.0186 24.6082 61.0451 24.9543 61.0451C25.933 61.0451 26.8847 60.832 27.7566 60.4255C25.0457 66.635 23.6393 73.3559 23.6393 80.2958C23.6393 93.5904 28.8164 106.089 38.2172 115.49C38.7673 116.04 39.329 116.574 39.8998 117.095L31.8927 125.102C29.0944 127.901 29.0944 132.454 31.8927 135.252C33.2483 136.607 35.0505 137.354 36.9675 137.354C38.8846 137.354 40.6868 136.607 42.0424 135.252L52.0274 125.267C58.6229 128.409 65.8896 130.068 73.4117 130.068C80.9336 130.068 88.2005 128.409 94.7959 125.267L104.781 135.252C106.136 136.607 107.939 137.354 109.856 137.354C111.773 137.354 113.575 136.607 114.931 135.252C117.729 132.454 117.729 127.901 114.931 125.102L106.923 117.095C107.494 116.574 108.056 116.04 108.606 115.49C109.259 114.837 109.259 113.778 108.606 113.126C107.953 112.473 106.895 112.473 106.242 113.126C105.344 114.024 104.413 114.879 103.457 115.693C103.426 115.717 103.396 115.743 103.366 115.77C100.633 118.085 97.6731 120.057 94.5387 121.662C94.4159 121.708 94.2971 121.768 94.1854 121.843C87.8161 125.035 80.7439 126.724 73.412 126.724C47.8111 126.724 26.9832 105.896 26.9832 80.2956C26.9832 70.2399 30.1433 60.6775 36.1217 52.633L45.7487 43.006C53.793 37.0273 63.3559 33.8668 73.4115 33.8668C83.4676 33.8668 93.0302 37.0273 101.075 43.006L110.702 52.6334C116.68 60.6778 119.84 70.2402 119.84 80.2958C119.84 90.0423 116.854 99.3698 111.205 107.27C110.668 108.021 110.842 109.065 111.593 109.602C111.887 109.813 112.227 109.914 112.564 109.914C113.085 109.914 113.598 109.671 113.925 109.214C119.982 100.744 123.183 90.7437 123.183 80.2956C123.183 73.3554 121.777 66.6348 119.066 60.4252C119.938 60.8318 120.89 61.0449 121.869 61.0449C122.215 61.0449 122.564 61.0183 122.914 60.9644C125.043 60.6374 126.834 59.3567 127.828 57.4509C130.112 53.069 130.941 48.1555 130.224 43.242ZM21.5876 28.4717C22.5937 27.4656 24.1854 27.3954 25.275 28.2584C24.5558 28.825 23.8637 29.4343 23.2071 30.0909C22.5505 30.7476 21.9387 31.4367 21.371 32.1542C20.5118 31.0647 20.5829 29.4764 21.5876 28.4717ZM104.371 119.271L112.567 127.466C114.061 128.961 114.061 131.393 112.567 132.888C111.843 133.612 110.88 134.011 109.856 134.011C108.832 134.011 107.869 133.612 107.145 132.888L97.906 123.649C100.16 122.37 102.32 120.906 104.371 119.271ZM42.452 119.271C44.503 120.907 46.663 122.37 48.9175 123.649L39.6782 132.888C38.9541 133.612 37.9915 134.011 36.9673 134.011C35.9434 134.011 34.9805 133.612 34.2564 132.888C32.7617 131.393 32.7617 128.961 34.2564 127.466L42.452 119.271ZM125.235 28.4717C126.24 29.4764 126.311 31.0645 125.452 32.1542C124.885 31.4367 124.273 30.7476 123.616 30.0912C122.96 29.4345 122.271 28.8227 121.553 28.255C122.642 27.396 124.231 27.4669 125.235 28.4717ZM124.863 55.9054C124.367 56.8569 123.472 57.4963 122.407 57.6599C121.334 57.8249 120.276 57.4796 119.509 56.7122L96.9951 34.198C96.2277 33.4306 95.8822 32.3744 96.0474 31.3001C96.211 30.2351 96.8504 29.3398 97.8017 28.8439C104.412 25.3986 112.187 25.9159 118.194 29.9418C118.237 29.9748 118.282 30.0058 118.328 30.0348C119.361 30.7389 120.342 31.5444 121.252 32.4551C122.162 33.3644 122.966 34.3436 123.669 35.3744C123.687 35.4038 123.708 35.431 123.728 35.4589C127.787 41.4741 128.319 49.2757 124.863 55.9054ZM73.4115 111.671C72.4883 111.671 71.7399 112.419 71.7399 113.342V114.277C71.7399 115.2 72.4883 115.949 73.4115 115.949C74.3349 115.949 75.0831 115.2 75.0831 114.277V113.342C75.0831 112.419 74.3349 111.671 73.4115 111.671ZM73.4115 39.4706C50.9005 39.4706 32.5863 57.7845 32.5863 80.2958C32.5863 102.807 50.9005 121.121 73.4115 121.121C95.9226 121.121 114.237 102.807 114.237 80.2958C114.237 57.7847 95.9226 39.4706 73.4115 39.4706ZM73.4115 117.778C52.7439 117.778 35.9296 100.963 35.9296 80.2956C35.9296 59.628 52.7439 42.8136 73.4115 42.8136C94.0793 42.8136 110.893 59.628 110.893 80.2956C110.893 100.963 94.0793 117.778 73.4115 117.778ZM107.393 78.624H106.458C105.535 78.624 104.786 79.3724 104.786 80.2956C104.786 81.2188 105.535 81.9672 106.458 81.9672H107.393C108.316 81.9672 109.064 81.2188 109.064 80.2956C109.064 79.3724 108.316 78.624 107.393 78.624ZM73.4115 74.1061C77.7473 74.1061 81.2746 70.248 81.2746 65.5061C81.2746 60.764 77.7473 56.9061 73.4115 56.9061C69.0758 56.9061 65.5482 60.7642 65.5482 65.5061C65.5484 70.248 69.0758 74.1061 73.4115 74.1061ZM73.4115 60.2492C75.9038 60.2492 77.9314 62.6075 77.9314 65.5059C77.9314 68.4045 75.9036 70.7626 73.4115 70.7626C70.9192 70.7626 68.8914 68.4043 68.8914 65.5059C68.8917 62.6075 70.9192 60.2492 73.4115 60.2492ZM55.5541 62.9837V59.6875C55.5541 58.7643 54.8056 58.0159 53.8824 58.0159C52.9592 58.0159 52.2108 58.7643 52.2108 59.6875V62.9837C52.2108 63.9069 52.9592 64.6554 53.8824 64.6554C54.8056 64.6554 55.5541 63.9071 55.5541 62.9837ZM92.9406 64.6554C93.864 64.6554 94.6123 63.9069 94.6123 62.9837V59.6875C94.6123 58.7643 93.864 58.0159 92.9406 58.0159C92.0172 58.0159 91.269 58.7643 91.269 59.6875V62.9837C91.269 63.9071 92.0174 64.6554 92.9406 64.6554ZM40.3652 78.624H39.4304C38.5072 78.624 37.7588 79.3724 37.7588 80.2956C37.7588 81.2188 38.5072 81.9672 39.4304 81.9672H40.3652C41.2884 81.9672 42.0368 81.2188 42.0368 80.2956C42.0368 79.3724 41.2884 78.624 40.3652 78.624ZM73.4115 48.9209C74.3349 48.9209 75.0831 48.1724 75.0831 47.2492V46.3144C75.0831 45.3913 74.3349 44.6428 73.4115 44.6428C72.4883 44.6428 71.7399 45.3913 71.7399 46.3144V47.2492C71.7399 48.1724 72.4883 48.9209 73.4115 48.9209Z" fill="#F95703"/>
<path d="M85.1859 12.2532V13.3374C85.1859 13.4515 85.1406 13.5609 85.0599 13.6416C84.9792 13.7223 84.8698 13.7676 84.7557 13.7676H83.8952C83.7811 13.7676 83.6717 13.7223 83.591 13.6416C83.5103 13.5609 83.465 13.4515 83.465 13.3374V13.1051C83.4548 12.6812 83.3292 12.2682 83.1018 11.9104C82.8744 11.5526 82.5537 11.2635 82.1743 11.0744C82.0194 10.9883 81.8817 10.8851 81.7441 10.7904V18.5346C81.6737 19.3824 81.2739 20.1688 80.6305 20.7254C79.9871 21.2819 79.1513 21.5642 78.3022 21.5118C77.4476 21.5639 76.6069 21.2769 75.9626 20.7131C75.3182 20.1493 74.9222 19.3541 74.8604 18.5002C74.9222 17.6462 75.3182 16.8511 75.9626 16.2873C76.6069 15.7235 77.4476 15.4365 78.3022 15.4886C78.9016 15.4873 79.4922 15.632 80.0231 15.9102V6.45367C80.0231 6.33957 80.0685 6.23013 80.1492 6.14945C80.2298 6.06877 80.3393 6.02344 80.4534 6.02344H81.3138C81.4279 6.02344 81.5374 6.06877 81.6181 6.14945C81.6987 6.23013 81.7441 6.33957 81.7441 6.45367V6.59995C81.7352 7.02713 81.8457 7.4483 82.0631 7.81614C82.2805 8.18399 82.5961 8.48393 82.9745 8.68228C83.6398 9.01166 84.1995 9.52073 84.5903 10.1518C84.9812 10.7829 85.1875 11.5109 85.1859 12.2532Z" fill="#FF8445"/>
<path opacity="0.5" d="M16.3488 98.2996V99.3838C16.3488 99.4979 16.3034 99.6073 16.2228 99.688C16.1421 99.7687 16.0326 99.814 15.9185 99.814H15.0581C14.944 99.814 14.8345 99.7687 14.7539 99.688C14.6732 99.6073 14.6278 99.4979 14.6278 99.3838V99.1515C14.6176 98.7276 14.4921 98.3146 14.2646 97.9568C14.0372 97.599 13.7166 97.3099 13.3371 97.1208C13.1823 97.0347 13.0446 96.9315 12.9069 96.8368V104.581C12.8365 105.429 12.4368 106.215 11.7934 106.772C11.15 107.328 10.3141 107.611 9.46505 107.558C8.61045 107.61 7.76978 107.323 7.12543 106.759C6.48108 106.196 6.08503 105.401 6.02319 104.547C6.08503 103.693 6.48108 102.897 7.12543 102.334C7.76978 101.77 8.61045 101.483 9.46505 101.535C10.0644 101.534 10.6551 101.678 11.186 101.957V92.5001C11.186 92.386 11.2313 92.2765 11.312 92.1958C11.3927 92.1152 11.5021 92.0698 11.6162 92.0698H12.4767C12.5908 92.0698 12.7002 92.1152 12.7809 92.1958C12.8616 92.2765 12.9069 92.386 12.9069 92.5001V92.6463C12.8981 93.0735 13.0086 93.4947 13.2259 93.8625C13.4433 94.2304 13.7589 94.5303 14.1374 94.7287C14.8026 95.058 15.3624 95.5671 15.7532 96.1982C16.144 96.8293 16.3503 97.5573 16.3488 98.2996Z" fill="#FF8445"/>
<path d="M141.116 105.198V106.734C141.116 106.895 141.052 107.05 140.938 107.164C140.823 107.279 140.668 107.343 140.507 107.343H139.288C139.126 107.343 138.971 107.279 138.857 107.164C138.742 107.05 138.678 106.895 138.678 106.734V106.404C138.664 105.804 138.486 105.219 138.164 104.712C137.842 104.205 137.387 103.796 136.85 103.528C136.63 103.406 136.435 103.259 136.24 103.125V114.096C136.14 115.297 135.574 116.411 134.663 117.2C133.751 117.988 132.567 118.388 131.364 118.314C130.154 118.388 128.963 117.981 128.05 117.182C127.137 116.384 126.576 115.257 126.488 114.047C126.576 112.838 127.137 111.711 128.05 110.913C128.963 110.114 130.154 109.707 131.364 109.781C132.213 109.779 133.05 109.984 133.802 110.378V96.9816C133.802 96.8199 133.866 96.6649 133.981 96.5506C134.095 96.4363 134.25 96.3721 134.412 96.3721H135.631C135.792 96.3721 135.947 96.4363 136.062 96.5506C136.176 96.6649 136.24 96.8199 136.24 96.9816V97.1888C136.228 97.794 136.384 98.3906 136.692 98.9117C137 99.4329 137.447 99.8578 137.983 100.139C138.926 100.605 139.719 101.327 140.272 102.221C140.826 103.115 141.118 104.146 141.116 105.198Z" fill="#F95703"/>
</svg>
