<svg width="148" height="148" viewBox="0 0 148 148" fill="none" xmlns="http://www.w3.org/2000/svg">
<path fill-rule="evenodd" clip-rule="evenodd" d="M136.684 72.9509C135.342 71.8247 133.584 71.3531 131.858 71.6578L114.771 74.6706C114.298 74.7541 113.841 74.8779 113.403 75.0354V34.8898C113.403 29.0724 108.671 24.3389 102.852 24.3389H67.4497V22.8301C67.4497 20.7775 65.7806 19.1084 63.7289 19.1084H48.2372C46.1855 19.1084 44.5155 20.7775 44.5155 22.8301V24.3389H42.8164C38.0688 24.3389 33.882 27.5345 32.6358 32.1105C32.3742 33.0707 32.9396 34.06 33.8998 34.3216C34.8582 34.5823 35.8484 34.0168 36.11 33.0576C36.9305 30.0438 39.6882 27.9396 42.8164 27.9396H102.852C106.685 27.9396 109.803 31.0575 109.803 34.8898V77.6197C108.683 79.0244 108.023 80.7994 108.023 82.7123V91.2266C108.023 91.2285 108.022 91.2294 108.022 91.2313V110.894C105.465 110.286 102.66 110.229 99.7768 110.738C96.5464 111.308 93.4454 112.548 90.7224 114.324C86.0609 117.193 83.2583 122.164 82.4397 124.292C81.8649 125.889 81.5629 127.526 81.5629 129.154C81.5629 129.801 81.6136 130.436 81.7083 131.058H42.8164C38.984 131.058 35.8662 127.94 35.8662 124.108V41.0739C35.8662 40.08 35.0598 39.2736 34.0658 39.2736C33.0709 39.2736 32.2654 40.08 32.2654 41.0739V124.108C32.2654 129.926 36.9989 134.659 42.8164 134.659H82.8626C83.5912 136.093 84.6114 137.384 85.9035 138.468C88.6669 140.787 92.4196 142.014 96.5492 142.014C97.8038 142.014 99.0951 141.901 100.403 141.67C108.798 140.189 116.065 134.19 118.075 127.079C118.345 126.123 117.789 125.127 116.833 124.857C115.875 124.586 114.88 125.143 114.61 126.1C112.988 131.837 106.75 136.894 99.7777 138.124C95.2177 138.927 91.0046 138.048 88.2187 135.71C87.0888 134.762 86.2608 133.625 85.7535 132.345C85.7329 132.273 85.7076 132.204 85.6785 132.137C85.34 131.209 85.1637 130.21 85.1637 129.154C85.1637 122.436 91.9995 115.765 100.402 114.284C103.58 113.724 106.601 113.979 109.139 115.021C109.695 115.249 110.327 115.185 110.826 114.85C111.324 114.516 111.623 113.955 111.623 113.355V92.7419L115.016 92.1437V118.168C115.016 119.163 115.823 119.969 116.817 119.969C117.811 119.969 118.617 119.163 118.617 118.168V91.5089L128.483 89.7694C134.458 88.7155 138.796 83.5469 138.796 77.479C138.796 75.7274 138.026 74.0771 136.684 72.9509ZM48.1163 24.3389H63.8489V22.8301C63.8489 22.7635 63.7945 22.7092 63.7289 22.7092H48.2372C48.1706 22.7092 48.1163 22.7635 48.1163 22.8301V24.3389ZM111.624 89.0858L127.858 86.2231C132.109 85.4738 135.195 81.7962 135.195 77.479C135.195 76.7945 134.894 76.1494 134.37 75.7096C133.95 75.357 133.425 75.1686 132.887 75.1686C132.752 75.1686 132.618 75.1798 132.483 75.2033L115.396 78.217C114.445 78.3839 113.609 78.8368 112.966 79.4773C112.933 79.5157 112.898 79.5532 112.861 79.5898C112.09 80.4112 111.624 81.513 111.624 82.7123V89.0858Z" fill="#F95703"/>
<path fill-rule="evenodd" clip-rule="evenodd" d="M61.2037 58.9432C61.2037 54.4482 64.8476 50.8042 69.3427 50.8042H78.5669C83.062 50.8042 86.7059 54.4482 86.7059 58.9432V67.0822H83.4503V58.9432C83.4503 56.2462 81.264 54.0598 78.5669 54.0598H69.3427C66.6457 54.0598 64.4593 56.2462 64.4593 58.9432V67.0822H61.2037V58.9432Z" fill="#F95703"/>
<path fill-rule="evenodd" clip-rule="evenodd" d="M20.2607 14.4115C21.0024 13.6699 22.2048 13.6699 22.9465 14.4115L31.7134 23.1785C32.455 23.9201 32.455 25.1226 31.7134 25.8642C30.9718 26.6059 29.7693 26.6059 29.0277 25.8642L20.2607 17.0973C19.5191 16.3556 19.5191 15.1532 20.2607 14.4115Z" fill="#F95703"/>
<path fill-rule="evenodd" clip-rule="evenodd" d="M19.2152 32.698C19.2152 31.7476 19.7959 30.9771 20.5121 30.9771L27.3835 30.9771C28.0997 30.9771 28.6804 31.7476 28.6804 32.698C28.6804 33.6485 28.0997 34.4189 27.3835 34.4189L20.5121 34.4189C19.7959 34.4189 19.2152 33.6485 19.2152 32.698Z" fill="#F95703"/>
<path fill-rule="evenodd" clip-rule="evenodd" d="M37.2851 12.0469C38.2355 12.0469 39.006 12.6803 39.006 13.4616V20.9577C39.006 21.739 38.2355 22.3725 37.2851 22.3725C36.3346 22.3725 35.5641 21.739 35.5641 20.9577V13.4616C35.5641 12.6803 36.3346 12.0469 37.2851 12.0469Z" fill="#F95703"/>
<path fill-rule="evenodd" clip-rule="evenodd" d="M37.2851 6.02344C38.2355 6.02344 39.006 6.28736 39.006 6.61292V9.73628C39.006 10.0618 38.2355 10.3258 37.2851 10.3258C36.3346 10.3258 35.5641 10.0618 35.5641 9.73628V6.61292C35.5641 6.28736 36.3346 6.02344 37.2851 6.02344Z" fill="#F95703"/>
<path d="M53.0648 75.2217C53.0648 71.6256 55.98 68.7104 59.576 68.7104H88.3339C91.9299 68.7104 94.8451 71.6256 94.8451 75.2217V94.7553C94.8451 98.3514 91.9299 101.267 88.3339 101.267H59.576C55.98 101.267 53.0648 98.3514 53.0648 94.7553V75.2217Z" fill="#FFF6F1"/>
<path fill-rule="evenodd" clip-rule="evenodd" d="M51.4371 75.2211C51.4371 70.726 55.081 67.082 59.5761 67.082H88.334C92.829 67.082 96.473 70.726 96.473 75.2211V94.7547C96.473 99.2498 92.829 102.894 88.334 102.894H59.5761C55.081 102.894 51.4371 99.2498 51.4371 94.7547V75.2211ZM59.5761 70.3376C56.8791 70.3376 54.6927 72.524 54.6927 75.2211V94.7547C54.6927 97.4518 56.8791 99.6381 59.5761 99.6381H88.334C91.031 99.6381 93.2174 97.4518 93.2174 94.7547V75.2211C93.2174 72.524 91.031 70.3376 88.334 70.3376H59.5761Z" fill="#F95703"/>
<path d="M75.9982 86.5107C77.5205 85.7721 78.5672 84.2338 78.5672 82.4558C78.5672 79.9585 76.5023 77.9341 73.9551 77.9341C71.4079 77.9341 69.343 79.9585 69.343 82.4558C69.343 84.2338 70.3897 85.7721 71.912 86.5107L71.3928 91.4991H76.5174L75.9982 86.5107Z" fill="white"/>
<path fill-rule="evenodd" clip-rule="evenodd" d="M71.9119 86.5109C70.3896 85.7723 69.3428 84.234 69.3428 82.456C69.3428 79.9587 71.4077 77.9343 73.9549 77.9343C76.5021 77.9343 78.5671 79.9587 78.5671 82.456C78.5671 84.234 77.5203 85.7723 75.998 86.5109L76.5172 91.4994H71.3927L71.9119 86.5109ZM79.4304 88.0399C80.8956 86.6357 81.8227 84.6632 81.8227 82.456C81.8227 78.1002 78.2391 74.6787 73.9549 74.6787C69.6708 74.6787 66.0872 78.1002 66.0872 82.456C66.0872 84.6632 67.0142 86.6357 68.4795 88.0399L68.1545 91.1623C68.0591 92.0795 68.357 92.9941 68.9744 93.679C69.5917 94.3639 70.4706 94.755 71.3927 94.755H76.5172C77.4393 94.755 78.3182 94.3639 78.9355 93.679C79.5529 92.9941 79.8508 92.0795 79.7553 91.1623L79.4304 88.0399Z" fill="#F95703"/>
<path d="M133.657 49.2532V50.3374C133.657 50.4515 133.612 50.5609 133.531 50.6416C133.45 50.7223 133.341 50.7676 133.227 50.7676H132.366C132.252 50.7676 132.143 50.7223 132.062 50.6416C131.982 50.5609 131.936 50.4515 131.936 50.3374V50.1051C131.926 49.6812 131.8 49.2682 131.573 48.9104C131.346 48.5526 131.025 48.2635 130.646 48.0744C130.491 47.9883 130.353 47.8851 130.215 47.7904V55.5346C130.145 56.3824 129.745 57.1688 129.102 57.7254C128.458 58.2819 127.623 58.5642 126.773 58.5118C125.919 58.5639 125.078 58.2769 124.434 57.7131C123.789 57.1493 123.393 56.3541 123.332 55.5002C123.393 54.6462 123.789 53.8511 124.434 53.2873C125.078 52.7235 125.919 52.4365 126.773 52.4886C127.373 52.4873 127.963 52.632 128.494 52.9102V43.4537C128.494 43.3396 128.54 43.2301 128.62 43.1494C128.701 43.0688 128.81 43.0234 128.925 43.0234H129.785C129.899 43.0234 130.009 43.0688 130.089 43.1494C130.17 43.2301 130.215 43.3396 130.215 43.4537V43.5999C130.206 44.0271 130.317 44.4483 130.534 44.8161C130.752 45.184 131.067 45.4839 131.446 45.6823C132.111 46.0117 132.671 46.5207 133.062 47.1518C133.452 47.7829 133.659 48.5109 133.657 49.2532Z" fill="#FF8445"/>
<path d="M24.378 103.649V105.215C24.378 105.379 24.3126 105.538 24.196 105.654C24.0795 105.771 23.9214 105.836 23.7566 105.836H22.5139C22.3491 105.836 22.1911 105.771 22.0745 105.654C21.958 105.538 21.8925 105.379 21.8925 105.215V104.879C21.8778 104.267 21.6964 103.67 21.368 103.154C21.0395 102.637 20.5764 102.219 20.0284 101.946C19.8047 101.822 19.6059 101.673 19.4071 101.536V112.721C19.3054 113.945 18.728 115.081 17.7988 115.885C16.8696 116.689 15.6624 117.096 14.4361 117.021C13.2018 117.096 11.9877 116.681 11.057 115.867C10.1264 115.053 9.55443 113.904 9.46512 112.671C9.55443 111.438 10.1264 110.289 11.057 109.475C11.9877 108.661 13.2018 108.246 14.4361 108.322C15.3017 108.32 16.1548 108.529 16.9216 108.93V95.2727C16.9216 95.1079 16.987 94.9499 17.1036 94.8334C17.2201 94.7168 17.3781 94.6514 17.5429 94.6514H18.7857C18.9505 94.6514 19.1085 94.7168 19.2251 94.8334C19.3416 94.9499 19.4071 95.1079 19.4071 95.2727V95.484C19.3943 96.101 19.5539 96.7092 19.8678 97.2405C20.1817 97.7718 20.6376 98.205 21.1842 98.4914C22.145 98.9672 22.9534 99.7024 23.5178 100.614C24.0823 101.525 24.3803 102.577 24.378 103.649Z" fill="#F95703"/>
</svg>
