<svg width="148" height="148" viewBox="0 0 148 148" fill="none" xmlns="http://www.w3.org/2000/svg">
<g clip-path="url(#clip0)">
<path d="M40.3539 32.7145C40.3539 22.8202 48.3748 14.7993 58.269 14.7993H106.416C116.31 14.7993 124.331 22.8202 124.331 32.7145V119.491C124.331 129.385 116.31 137.406 106.416 137.406H58.269C48.3748 137.406 40.3539 129.385 40.3539 119.491V32.7145Z" fill="#FFF6F1"/>
<path d="M91.7548 18.208H81.4492C80.4076 18.208 79.5632 19.0522 79.5632 20.094C79.5632 21.1358 80.4076 21.9799 81.4492 21.9799H91.7548C92.7966 21.9799 93.6407 21.1358 93.6407 20.094C93.6407 19.0522 92.7966 18.208 91.7548 18.208Z" fill="#F95703"/>
<path d="M73.6955 21.978C74.7371 21.978 75.5815 21.1336 75.5815 20.092C75.5815 19.0504 74.7371 18.2061 73.6955 18.2061C72.6539 18.2061 71.8096 19.0504 71.8096 20.092C71.8096 21.1336 72.6539 21.978 73.6955 21.978Z" fill="#F95703"/>
<path d="M108.571 12H54.9939C46.3039 12 39.2341 19.0698 39.2341 27.7597V108.255C39.2341 109.297 40.0785 110.141 41.1201 110.141C42.1616 110.141 43.006 109.297 43.006 108.255V27.7597C43.006 21.1496 48.3837 15.7719 54.9939 15.7719H108.571C115.182 15.7719 120.559 21.1496 120.559 27.7597V124.988C120.559 131.598 115.182 136.975 108.571 136.975H54.9939C48.3837 136.975 43.006 131.598 43.006 124.988V116.488C43.006 115.447 42.1616 114.602 41.1201 114.602C40.0785 114.602 39.2341 115.447 39.2341 116.488V124.988C39.2341 133.678 46.3039 140.747 54.9939 140.747H108.571C117.261 140.747 124.331 133.678 124.331 124.988V27.7597C124.331 19.0698 117.261 12 108.571 12Z" fill="#F95703"/>
<path d="M111.532 38.9077C112.574 38.9077 113.418 38.0635 113.418 37.0218V33.1422C113.418 28.3295 109.503 24.4141 104.69 24.4141H58.8747C54.062 24.4141 50.1465 28.3295 50.1465 33.1422V109.1C50.1465 113.912 54.062 117.828 58.8747 117.828H104.69C109.503 117.828 113.418 113.912 113.418 109.1V45.0886C113.418 44.0468 112.574 43.2026 111.532 43.2026C110.49 43.2026 109.646 44.0468 109.646 45.0886V109.099C109.646 111.832 107.423 114.056 104.69 114.056H58.8747C56.1418 114.056 53.9184 111.832 53.9184 109.099V33.1422C53.9184 30.4094 56.1418 28.186 58.8747 28.186H104.69C107.423 28.186 109.646 30.4094 109.646 33.1422V37.0218C109.646 38.0635 110.49 38.9077 111.532 38.9077Z" fill="#F95703"/>
<path d="M81.7825 120.384C77.913 120.384 74.765 123.533 74.765 127.402C74.765 131.271 77.913 134.419 81.7825 134.419C85.652 134.419 88.8 131.271 88.8 127.402C88.8 123.533 85.652 120.384 81.7825 120.384ZM81.7825 130.647C79.9929 130.647 78.5369 129.191 78.5369 127.402C78.5369 125.612 79.9929 124.156 81.7825 124.156C83.5721 124.156 85.0281 125.612 85.0281 127.402C85.0281 129.191 83.5721 130.647 81.7825 130.647Z" fill="#FF8445"/>
<path d="M90.9332 55V74.1086C90.9329 75.3104 90.5361 76.4786 89.8043 77.4319C89.0725 78.3852 88.0466 79.0704 86.8857 79.3812C85.7248 79.6921 84.4938 79.6112 83.3835 79.1511C82.2733 78.6911 81.3459 77.8775 80.7451 76.8367C80.1443 75.7958 79.9037 74.5858 80.0607 73.3943C80.2177 72.2028 80.7634 71.0964 81.6132 70.2467C82.4631 69.3969 83.5696 68.8513 84.7611 68.6945C85.9526 68.5377 87.1626 68.7783 88.2034 69.3792V59.0947H75.9192V74.1086C75.919 75.3104 75.5222 76.4786 74.7904 77.4319C74.0586 78.3852 73.0327 79.0704 71.8718 79.3812C70.7109 79.6921 69.4799 79.6112 68.3696 79.1511C67.2594 78.6911 66.3319 77.8775 65.7312 76.8367C65.1304 75.7958 64.8898 74.5858 65.0468 73.3943C65.2037 72.2028 65.7495 71.0964 66.5993 70.2467C67.4492 69.3969 68.5556 68.8513 69.7471 68.6945C70.9387 68.5377 72.1486 68.7783 73.1894 69.3792V55H90.9332Z" fill="#F95703"/>
<path d="M11 125C11 112.297 21.3382 102 34.0909 102H114.909C127.662 102 138 112.297 138 125C138 137.703 127.662 148 114.909 148H34.0909C21.3382 148 11 137.703 11 125Z" fill="#FFF6F1"/>
<path fill-rule="evenodd" clip-rule="evenodd" d="M114.909 104.76H34.0909C22.8685 104.76 13.7709 113.822 13.7709 125C13.7709 136.178 22.8685 145.24 34.0909 145.24H114.909C126.132 145.24 135.229 136.178 135.229 125C135.229 113.822 126.132 104.76 114.909 104.76ZM34.0909 102C21.3382 102 11 112.297 11 125C11 137.703 21.3382 148 34.0909 148H114.909C127.662 148 138 137.703 138 125C138 112.297 127.662 102 114.909 102H34.0909Z" fill="#F95703"/>
<path d="M69 125C69 112.297 79.2341 102 91.8586 102H114.141C126.766 102 137 112.297 137 125C137 137.703 126.766 148 114.141 148H91.8586C79.2341 148 69 137.703 69 125Z" fill="#F95703"/>
<path d="M25.5924 129.19C25.5486 129.092 25.5362 128.983 25.5569 128.878C25.5777 128.772 25.6306 128.676 25.7084 128.602C25.7861 128.528 25.885 128.479 25.9912 128.464C26.0974 128.448 26.2059 128.466 26.3016 128.515C27.6313 129.189 29.1013 129.539 30.5918 129.536C35.6898 129.536 39.8159 125.542 39.8159 120.625C39.8147 118.501 39.0361 116.45 37.6272 114.862C37.5565 114.78 37.5127 114.679 37.5018 114.572C37.4909 114.465 37.5135 114.357 37.5666 114.264C37.6196 114.17 37.7003 114.095 37.7977 114.049C37.895 114.004 38.0042 113.989 38.11 114.008C43.4323 114.976 47.3508 119.499 47.3508 124.816C47.3508 130.894 42.2673 135.813 36.0044 135.813C31.4432 135.813 27.3783 133.18 25.5924 129.19Z" fill="#F95703"/>
<path d="M29.5993 126.372C29.515 126.418 29.4222 126.447 29.3265 126.456C29.2307 126.466 29.1341 126.456 29.0423 126.427C28.9505 126.398 28.8655 126.351 28.7924 126.289C28.7193 126.226 28.6597 126.149 28.617 126.063C28.5475 125.924 28.5235 125.767 28.5485 125.614L28.7717 124.251L27.8311 123.29C27.6998 123.155 27.6253 122.975 27.623 122.787C27.6207 122.598 27.6907 122.416 27.8186 122.278C27.9282 122.16 28.0746 122.083 28.2339 122.058L29.5141 121.864L30.0914 120.637C30.1487 120.514 30.24 120.409 30.3546 120.336C30.4692 120.263 30.6023 120.224 30.7383 120.224C30.8742 120.224 31.0073 120.263 31.1219 120.336C31.2365 120.409 31.3278 120.514 31.3851 120.637L31.9624 121.864L33.2426 122.058C33.6372 122.118 33.8998 122.488 33.8459 122.879C33.8246 123.034 33.7544 123.178 33.6455 123.29L32.7048 124.251L32.928 125.614C32.9595 125.802 32.9162 125.994 32.8072 126.15C32.6983 126.306 32.5325 126.413 32.3455 126.448C32.1856 126.477 32.0206 126.45 31.8783 126.372L30.7383 125.744L29.5993 126.372Z" fill="#F95703"/>
<path d="M33.608 120.13C33.5178 120.179 33.4187 120.21 33.3164 120.22C33.2142 120.23 33.111 120.219 33.0131 120.188C32.9151 120.157 32.8244 120.107 32.7464 120.04C32.6685 119.973 32.6048 119.891 32.5593 119.798C32.4845 119.649 32.4587 119.481 32.4856 119.316L32.6362 118.395L31.9997 117.746C31.8589 117.601 31.7791 117.408 31.7766 117.206C31.774 117.004 31.8491 116.809 31.9862 116.661C32.1035 116.534 32.2601 116.451 32.4306 116.425L33.2913 116.295L33.6796 115.469C33.7405 115.337 33.8381 115.224 33.9608 115.146C34.0836 115.067 34.2264 115.025 34.3722 115.025C34.518 115.025 34.6607 115.067 34.7835 115.146C34.9062 115.224 35.0038 115.337 35.0647 115.469L35.453 116.295L36.3148 116.425C36.5165 116.457 36.6973 116.567 36.8182 116.732C36.939 116.897 36.9902 117.103 36.9606 117.305C36.9376 117.471 36.8619 117.626 36.7447 117.746L36.1082 118.395L36.2587 119.316C36.293 119.517 36.2469 119.724 36.1304 119.892C36.0139 120.059 35.8362 120.174 35.6358 120.212C35.465 120.242 35.2891 120.213 35.1374 120.129L34.3722 119.71L33.608 120.131V120.13Z" fill="#F95703"/>
<path d="M112.385 134.212H98.3544C97.428 134.215 96.5382 133.85 95.8808 133.197C95.2234 132.545 94.8523 131.657 94.849 130.731C94.8458 129.804 95.2107 128.915 95.8635 128.257C96.5162 127.6 97.4034 127.229 98.3299 127.226C98.3978 123.49 101.528 120.49 105.37 120.49C107.967 120.49 110.307 121.872 111.532 124.027C111.968 123.914 112.421 123.857 112.881 123.857C115.809 123.857 118.19 126.171 118.19 129.035C118.19 131.899 115.809 134.212 112.882 134.212C112.789 134.212 112.698 134.209 112.606 134.205C112.533 134.21 112.459 134.212 112.385 134.212ZM94.4453 127.823C93.7146 127.416 93.1059 126.821 92.6822 126.1C92.2584 125.379 92.035 124.558 92.0351 123.722C92.0358 123.105 92.1582 122.493 92.3951 121.923C92.6321 121.353 92.979 120.835 93.4161 120.399C93.8532 119.963 94.3719 119.617 94.9426 119.382C95.5133 119.146 96.1248 119.025 96.7423 119.026C98.1884 119.026 99.5005 119.681 100.37 120.728C98.644 121.977 97.4224 123.857 97.0639 126.027C96.0149 126.316 95.093 126.948 94.4453 127.823ZM96.2338 115.672C96.2338 115.301 96.5413 115 96.9196 115C97.2979 115 97.6063 115.301 97.6063 115.672V117.058C97.6063 117.24 97.534 117.415 97.4053 117.544C97.2766 117.672 97.1021 117.745 96.9201 117.745C96.7381 117.745 96.5635 117.672 96.4348 117.544C96.3061 117.415 96.2338 117.24 96.2338 117.058V115.672ZM101.947 117.558C102.21 117.297 102.635 117.297 102.898 117.558C103.162 117.82 103.161 118.245 102.898 118.507L101.757 119.646C101.494 119.908 101.068 119.908 100.806 119.646C100.544 119.384 100.543 118.959 100.806 118.697L101.948 117.558H101.947ZM90.5871 128.938L91.7285 127.799C92.3624 127.167 93.3133 128.115 92.6794 128.748L91.5379 129.886C90.904 130.518 89.9532 129.569 90.5871 128.937V128.938ZM88.6721 123.233H90.0588C90.2408 123.233 90.4154 123.306 90.5441 123.434C90.6728 123.563 90.7451 123.738 90.7451 123.92C90.7451 124.102 90.6728 124.276 90.5441 124.405C90.4154 124.534 90.2408 124.606 90.0588 124.606H88.6721C87.776 124.606 87.776 123.233 88.6721 123.233ZM91.5153 117.581L92.6567 118.72C93.2906 119.352 92.3398 120.301 91.7059 119.669L90.5644 118.53C89.9305 117.898 90.8814 116.949 91.5153 117.581Z" fill="white"/>
<path d="M137.326 32.2298V33.314C137.326 33.4281 137.28 33.5375 137.2 33.6182C137.119 33.6989 137.009 33.7442 136.895 33.7442H136.035C135.921 33.7442 135.811 33.6989 135.731 33.6182C135.65 33.5375 135.605 33.4281 135.605 33.314V33.0816C135.594 32.6578 135.469 32.2448 135.241 31.8869C135.014 31.5291 134.693 31.2401 134.314 31.0509C134.159 30.9649 134.021 30.8616 133.884 30.767V38.5112C133.813 39.3589 133.414 40.1454 132.77 40.7019C132.127 41.2585 131.291 41.5408 130.442 41.4884C129.587 41.5404 128.747 41.2534 128.102 40.6896C127.458 40.1258 127.062 39.3307 127 38.4767C127.062 37.6228 127.458 36.8277 128.102 36.2639C128.747 35.7 129.587 35.413 130.442 35.4651C131.041 35.4639 131.632 35.6086 132.163 35.8867V26.4302C132.163 26.3161 132.208 26.2067 132.289 26.126C132.369 26.0453 132.479 26 132.593 26H133.453C133.568 26 133.677 26.0453 133.758 26.126C133.838 26.2067 133.884 26.3161 133.884 26.4302V26.5765C133.875 27.0037 133.985 27.4249 134.203 27.7927C134.42 28.1606 134.736 28.4605 135.114 28.6588C135.779 28.9882 136.339 29.4973 136.73 30.1284C137.121 30.7595 137.327 31.4874 137.326 32.2298Z" fill="#FF8445"/>
<path d="M25.6279 75.8255V77.3614C25.6279 77.5231 25.5637 77.6781 25.4494 77.7924C25.3351 77.9067 25.1801 77.9709 25.0184 77.9709H23.7994C23.6378 77.9709 23.4827 77.9067 23.3684 77.7924C23.2541 77.6781 23.1899 77.5231 23.1899 77.3614V77.0323C23.1755 76.4319 22.9976 75.8467 22.6754 75.3398C22.3532 74.8329 21.8989 74.4235 21.3614 74.1555C21.142 74.0336 20.947 73.8873 20.7519 73.7532V84.7241C20.6522 85.9252 20.0859 87.0393 19.1744 87.8278C18.2629 88.6162 17.0788 89.0161 15.876 88.9419C14.6653 89.0156 13.4743 88.609 12.5615 87.8103C11.6487 87.0116 11.0876 85.8852 11 84.6754C11.0876 83.4656 11.6487 82.3392 12.5615 81.5405C13.4743 80.7417 14.6653 80.3352 15.876 80.4089C16.7251 80.4071 17.5618 80.6121 18.314 81.0062V67.6095C18.314 67.4478 18.3782 67.2928 18.4925 67.1785C18.6068 67.0642 18.7618 67 18.9234 67H20.1424C20.3041 67 20.4591 67.0642 20.5734 67.1785C20.6877 67.2928 20.7519 67.4478 20.7519 67.6095V67.8167C20.7394 68.4219 20.896 69.0186 21.2039 69.5397C21.5118 70.0608 21.959 70.4857 22.4951 70.7667C23.4375 71.2333 24.2305 71.9545 24.7842 72.8486C25.3378 73.7426 25.6301 74.7739 25.6279 75.8255Z" fill="#F95703"/>
</g>
<defs>
<clipPath id="clip0">
<rect width="148" height="148" fill="white"/>
</clipPath>
</defs>
</svg>
