<svg width="148" height="148" viewBox="0 0 148 148" fill="none" xmlns="http://www.w3.org/2000/svg">
<path d="M29.8494 31.1747C29.8494 28.6536 31.8931 26.6099 34.4142 26.6099H117.183C119.704 26.6099 121.747 28.6536 121.747 31.1747V82.9413C121.747 85.4624 119.704 87.5061 117.183 87.5061H34.4142C31.8931 87.5061 29.8494 85.4624 29.8494 82.9413V31.1747Z" fill="#FFF6F1"/>
<path d="M13.7675 44.0901V45.1743C13.7675 45.2884 13.7221 45.3978 13.6415 45.4785C13.5608 45.5592 13.4513 45.6045 13.3372 45.6045H12.4768C12.3627 45.6045 12.2532 45.5592 12.1726 45.4785C12.0919 45.3978 12.0465 45.2884 12.0465 45.1743V44.942C12.0363 44.5181 11.9108 44.1051 11.6833 43.7473C11.4559 43.3895 11.1353 43.1005 10.7558 42.9113C10.601 42.8252 10.4633 42.722 10.3256 42.6273V50.3715C10.2552 51.2193 9.85547 52.0058 9.21207 52.5623C8.56867 53.1188 7.73284 53.4012 6.88376 53.3487C6.02915 53.4008 5.18848 53.1138 4.54413 52.55C3.89979 51.9862 3.50373 51.191 3.44189 50.3371C3.50373 49.4831 3.89979 48.688 4.54413 48.1242C5.18848 47.5604 6.02915 47.2734 6.88376 47.3255C7.48312 47.3242 8.07378 47.4689 8.60469 47.7471V38.2906C8.60469 38.1765 8.65001 38.067 8.7307 37.9864C8.81138 37.9057 8.92081 37.8604 9.03492 37.8604H9.89538C10.0095 37.8604 10.1189 37.9057 10.1996 37.9864C10.2803 38.067 10.3256 38.1765 10.3256 38.2906V38.4369C10.3168 38.864 10.4273 39.2852 10.6446 39.6531C10.862 40.0209 11.1776 40.3208 11.5561 40.5192C12.2213 40.8486 12.7811 41.3576 13.1719 41.9888C13.5627 42.6199 13.769 43.3478 13.7675 44.0901Z" fill="#FF8445"/>
<path fill-rule="evenodd" clip-rule="evenodd" d="M62.7321 43.5969C62.3137 43.5969 61.9124 43.7631 61.6166 44.059C61.3208 44.3548 61.1546 44.7561 61.1546 45.1745V60.9496C61.1546 61.368 61.3208 61.7693 61.6166 62.0651C61.9124 62.361 62.3137 62.5272 62.7321 62.5272H64.3096C65.1808 62.5272 65.8871 63.2334 65.8871 64.1047C65.8871 64.9759 65.1808 65.6822 64.3096 65.6822H62.7321C61.4769 65.6822 60.2732 65.1836 59.3856 64.2961C58.4981 63.4085 57.9995 62.2048 57.9995 60.9496V45.1745C57.9995 43.9193 58.4981 42.7156 59.3856 41.828C60.2732 40.9405 61.4769 40.4419 62.7321 40.4419H87.9724C89.2275 40.4419 90.4313 40.9405 91.3188 41.828C92.2063 42.7156 92.7049 43.9193 92.7049 45.1745V60.9496C92.7049 62.2048 92.2063 63.4085 91.3188 64.2961C90.4313 65.1836 89.2275 65.6822 87.9724 65.6822H86.3949C85.5236 65.6822 84.8173 64.9759 84.8173 64.1047C84.8173 63.2334 85.5236 62.5272 86.3949 62.5272H87.9724C88.3908 62.5272 88.792 62.361 89.0879 62.0651C89.3837 61.7693 89.5499 61.368 89.5499 60.9496V45.1745C89.5499 44.7561 89.3837 44.3548 89.0879 44.059C88.792 43.7631 88.3908 43.5969 87.9724 43.5969H62.7321Z" fill="#F95703"/>
<path fill-rule="evenodd" clip-rule="evenodd" d="M75.3523 59.3721C75.8205 59.3721 76.2645 59.58 76.5642 59.9397L84.4518 69.4048C84.8437 69.875 84.9281 70.5295 84.6685 71.0838C84.4089 71.6381 83.852 71.9922 83.2399 71.9922H67.4647C66.8526 71.9922 66.2958 71.6381 66.0362 71.0838C65.7765 70.5295 65.861 69.875 66.2529 69.4048L74.1405 59.9397C74.4402 59.58 74.8842 59.3721 75.3523 59.3721ZM70.8328 68.8372H79.8719L75.3523 63.4138L70.8328 68.8372Z" fill="#F95703"/>
<path d="M12.134 74.3558C12.134 71.8347 14.1778 69.791 16.6988 69.791H50.1966C52.7177 69.791 54.7614 71.8347 54.7614 74.3558V126.123C54.7614 128.644 52.7177 130.687 50.1966 130.687H16.6988C14.1778 130.687 12.134 128.644 12.134 126.123V74.3558Z" fill="white"/>
<path d="M35.4502 125.482C35.4502 126.547 34.5865 127.411 33.5207 127.411C32.456 127.411 31.5923 126.547 31.5923 125.482C31.5923 124.416 32.456 123.553 33.5207 123.553C34.5865 123.553 35.4502 124.416 35.4502 125.482Z" fill="#F95703"/>
<path d="M34.6075 73.9818C34.6075 74.5818 34.122 75.0674 33.5208 75.0674C32.9213 75.0674 32.4358 74.5818 32.4358 73.9818C32.4358 73.3805 32.9213 72.895 33.5208 72.895C34.122 72.895 34.6075 73.3805 34.6075 73.9818Z" fill="#F95703"/>
<path d="M77.2617 21.1873C77.2617 21.788 76.7743 22.2741 76.1749 22.2741C75.5743 22.2741 75.0881 21.788 75.0881 21.1873C75.0881 20.5879 75.5743 20.1006 76.1749 20.1006C76.7743 20.1006 77.2617 20.5879 77.2617 21.1873Z" fill="#F95703"/>
<path d="M76.1746 92.0166C73.2651 92.0166 70.8977 94.3834 70.8977 97.2929C70.8977 100.203 73.2651 102.569 76.1746 102.569C79.0836 102.569 81.451 100.203 81.451 97.2929C81.451 94.3834 79.0836 92.0166 76.1746 92.0166ZM76.1746 98.9941C75.2358 98.9941 74.4729 98.2318 74.4729 97.2929C74.4729 96.3553 75.2358 95.5918 76.1746 95.5918C77.1123 95.5918 77.8758 96.3553 77.8758 97.2929C77.8758 98.2318 77.1123 98.9941 76.1746 98.9941Z" fill="#F95703"/>
<path d="M99.1778 117.791H90.2183V108.595H121.65C127.491 108.595 132.243 103.843 132.243 98.0015V25.2212C132.243 19.38 127.491 14.6279 121.65 14.6279H30.6986C24.8574 14.6279 20.1054 19.38 20.1054 25.2212V67.9121H17.5614C13.5061 67.9121 10.2058 71.2118 10.2058 75.2677V125.503C10.2058 129.559 13.5061 132.859 17.5614 132.859H49.4808C50.1148 132.859 50.7298 132.778 51.3179 132.626C51.9227 132.781 52.5436 132.859 53.1699 132.859H99.1778C103.332 132.859 106.711 129.479 106.711 125.326C106.711 121.171 103.332 117.791 99.1778 117.791ZM86.643 117.791H65.7053V108.595H86.643V117.791ZM56.837 117.791V108.595H62.13V117.791H56.837ZM23.6806 25.2212C23.6806 21.3519 26.8281 18.2032 30.6986 18.2032H121.65C125.518 18.2032 128.668 21.3519 128.668 25.2212V98.0015C128.668 101.871 125.518 105.02 121.65 105.02H56.837V89.5657H120.94C121.928 89.5657 122.729 88.7652 122.729 87.778V25.9298C122.729 24.9426 121.928 24.1422 120.94 24.1422H105.265C104.278 24.1422 103.478 24.9426 103.478 25.9298C103.478 26.9181 104.278 27.7174 105.265 27.7174H119.153V85.9904H56.837V75.2677C56.837 71.2744 53.4747 67.9121 49.4814 67.9121H33.1954V27.7174H98.1465C99.1336 27.7174 99.9341 26.9181 99.9341 25.9298C99.9341 24.9426 99.1336 24.1422 98.1465 24.1422H31.4078C30.4207 24.1422 29.6202 24.9426 29.6202 25.9298V67.9121H23.6806V25.2212ZM17.5614 129.284C15.4768 129.284 13.7816 127.587 13.7816 125.503V75.2677C13.7816 73.1825 15.4768 71.4873 17.5614 71.4873H49.4808C51.5266 71.4873 53.2618 73.226 53.2618 75.2677V125.503C53.2618 127.539 51.5159 129.284 49.4808 129.284H17.5614ZM99.1778 129.284H55.7896C56.4696 128.149 56.837 126.826 56.837 125.503V121.367H99.1778C101.361 121.367 103.136 123.143 103.136 125.326C103.136 127.508 101.361 129.284 99.1778 129.284Z" fill="#F95703"/>
<path fill-rule="evenodd" clip-rule="evenodd" d="M23.5342 90.4795C23.2141 90.4795 22.9072 90.5997 22.6808 90.8137C22.4545 91.0276 22.3273 91.3178 22.3273 91.6204V103.029C22.3273 103.332 22.4545 103.622 22.6808 103.836C22.9072 104.05 23.2141 104.17 23.5342 104.17H24.7411C25.4077 104.17 25.948 104.681 25.948 105.311C25.948 105.941 25.4077 106.452 24.7411 106.452H23.5342C22.574 106.452 21.653 106.091 20.974 105.449C20.295 104.808 19.9136 103.937 19.9136 103.029V91.6204C19.9136 90.7127 20.295 89.8421 20.974 89.2002C21.653 88.5584 22.574 88.1978 23.5342 88.1978H42.8444C43.8047 88.1978 44.7256 88.5584 45.4046 89.2002C46.0836 89.8421 46.4651 90.7127 46.4651 91.6204V103.029C46.4651 103.937 46.0836 104.808 45.4046 105.449C44.7256 106.091 43.8047 106.452 42.8444 106.452H41.6375C40.971 106.452 40.4306 105.941 40.4306 105.311C40.4306 104.681 40.971 104.17 41.6375 104.17H42.8444C43.1645 104.17 43.4715 104.05 43.6978 103.836C43.9241 103.622 44.0513 103.332 44.0513 103.029V91.6204C44.0513 91.3178 43.9241 91.0276 43.6978 90.8137C43.4715 90.5997 43.1645 90.4795 42.8444 90.4795H23.5342Z" fill="#F95703" stroke="#F95703" stroke-linecap="round" stroke-linejoin="round"/>
<path fill-rule="evenodd" clip-rule="evenodd" d="M33.1896 101.473C33.518 101.473 33.8293 101.637 34.0395 101.921L39.5711 109.389C39.8459 109.76 39.9051 110.276 39.723 110.713C39.541 111.151 39.1504 111.43 38.7212 111.43H27.6581C27.2288 111.43 26.8383 111.151 26.6562 110.713C26.4741 110.276 26.5334 109.76 26.8082 109.389L32.3397 101.921C32.5499 101.637 32.8613 101.473 33.1896 101.473ZM30.0201 108.941H36.3592L33.1896 104.662L30.0201 108.941Z" fill="#F95703" stroke="#F95703" stroke-linecap="round" stroke-linejoin="round"/>
<path d="M142.837 117.244V118.78C142.837 118.942 142.773 119.097 142.659 119.211C142.544 119.325 142.389 119.389 142.228 119.389H141.009C140.847 119.389 140.692 119.325 140.578 119.211C140.463 119.097 140.399 118.942 140.399 118.78V118.451C140.385 117.85 140.207 117.265 139.885 116.758C139.562 116.251 139.108 115.842 138.571 115.574C138.351 115.452 138.156 115.306 137.961 115.172V126.143C137.861 127.344 137.295 128.458 136.384 129.246C135.472 130.035 134.288 130.435 133.085 130.36C131.875 130.434 130.684 130.027 129.771 129.229C128.858 128.43 128.297 127.304 128.209 126.094C128.297 124.884 128.858 123.758 129.771 122.959C130.684 122.16 131.875 121.754 133.085 121.827C133.934 121.826 134.771 122.031 135.523 122.425V109.028C135.523 108.866 135.587 108.711 135.702 108.597C135.816 108.483 135.971 108.418 136.133 108.418H137.352C137.513 108.418 137.668 108.483 137.783 108.597C137.897 108.711 137.961 108.866 137.961 109.028V109.235C137.949 109.84 138.105 110.437 138.413 110.958C138.721 111.479 139.168 111.904 139.704 112.185C140.647 112.652 141.44 113.373 141.993 114.267C142.547 115.161 142.839 116.192 142.837 117.244Z" fill="#F95703"/>
</svg>
