<svg width="18" height="18" viewBox="0 0 18 18" fill="none" xmlns="http://www.w3.org/2000/svg">
<circle cx="9" cy="9" r="8.25" fill="white" stroke="#F95703" stroke-width="1.5"/>
<path d="M8.19943 10.2505C8.19943 9.8095 8.28493 9.436 8.45593 9.13C8.63593 8.824 8.95093 8.4685 9.40093 8.0635C9.71593 7.7845 9.94093 7.5415 10.0759 7.3345C10.2199 7.1275 10.2919 6.88 10.2919 6.592C10.2919 6.241 10.1704 5.953 9.92743 5.728C9.68443 5.494 9.35143 5.377 8.92843 5.377C8.52343 5.377 8.19493 5.494 7.94293 5.728C7.69993 5.953 7.51993 6.241 7.40293 6.592L6.10693 6.052C6.28693 5.512 6.61543 5.035 7.09243 4.621C7.56943 4.207 8.17693 4 8.91493 4C9.46393 4 9.94993 4.1125 10.3729 4.3375C10.8049 4.5625 11.1379 4.8685 11.3719 5.2555C11.6149 5.6425 11.7364 6.0745 11.7364 6.5515C11.7364 7.0285 11.6239 7.4425 11.3989 7.7935C11.1739 8.1355 10.8724 8.482 10.4944 8.833C10.1884 9.112 9.97243 9.364 9.84643 9.589C9.72943 9.814 9.67093 10.0885 9.67093 10.4125V10.804H8.19943V10.2505ZM8.92843 13.963C8.64943 13.963 8.41093 13.864 8.21293 13.666C8.01493 13.468 7.91593 13.2295 7.91593 12.9505C7.91593 12.6625 8.01493 12.424 8.21293 12.235C8.41093 12.037 8.64943 11.938 8.92843 11.938C9.20743 11.938 9.44143 12.037 9.63043 12.235C9.82843 12.433 9.92743 12.6715 9.92743 12.9505C9.92743 13.2295 9.82843 13.468 9.63043 13.666C9.44143 13.864 9.20743 13.963 8.92843 13.963Z" fill="#F95703"/>
</svg>
