<svg width="24" height="24" viewBox="0 0 24 24" fill="none" xmlns="http://www.w3.org/2000/svg">
<path d="M7.94101 18C7.64401 16.727 6.30401 15.686 5.75401 15C4.8122 13.8233 4.22195 12.4044 4.05127 10.9069C3.88059 9.40944 4.13641 7.89418 4.78926 6.53572C5.44211 5.17725 6.46544 4.03085 7.74136 3.22856C9.01728 2.42627 10.4939 2.00074 12.0011 2.00098C13.5083 2.00122 14.9848 2.42722 16.2604 3.22992C17.5361 4.03262 18.559 5.17935 19.2115 6.53803C19.8639 7.8967 20.1192 9.41204 19.9481 10.9095C19.7769 12.4069 19.1862 13.8256 18.244 15.002C17.694 15.687 16.356 16.728 16.059 18H7.94001H7.94101ZM16 20V21C16 21.5304 15.7893 22.0391 15.4142 22.4142C15.0391 22.7893 14.5304 23 14 23H10C9.46957 23 8.96087 22.7893 8.58579 22.4142C8.21072 22.0391 8.00001 21.5304 8.00001 21V20H16ZM13 10.005V5.99997L8.50001 12.005H11V16.005L15.5 10.005H13Z" fill="#F95703"/>
</svg>
