<svg width="32" height="33" viewBox="0 0 32 33" fill="none" xmlns="http://www.w3.org/2000/svg">
<path d="M4.812 2.71262L18.3893 16.2939L4.81334 29.8753C4.57192 29.7738 4.36591 29.6032 4.22119 29.3849C4.07647 29.1667 3.99952 28.9105 4 28.6486V3.93928C4.0001 3.67771 4.07714 3.42195 4.22152 3.20383C4.36591 2.98572 4.57125 2.81489 4.812 2.71262ZM19.332 17.2366L22.4013 20.3059L7.81867 28.7499L19.332 17.2366ZM23.5973 12.9726L27.34 15.1406C27.5421 15.2578 27.7098 15.4261 27.8264 15.6285C27.9429 15.8309 28.0043 16.0604 28.0043 16.2939C28.0043 16.5275 27.9429 16.757 27.8264 16.9594C27.7098 17.1618 27.5421 17.3301 27.34 17.4473L23.596 19.6153L20.2747 16.2939L23.5973 12.9726ZM7.81867 3.83795L22.4027 12.2806L19.332 15.3513L7.81867 3.83795Z" fill="#232F3B"/>
</svg>