<svg width="72" height="72" viewBox="0 0 72 72" fill="none" xmlns="http://www.w3.org/2000/svg">
<g clip-path="url(#clip0)">
<path d="M35.9979 29.5312C32.431 29.5312 29.5291 32.4332 29.5291 36C29.5291 39.5668 32.431 42.4688 35.9979 42.4688C39.5647 42.4688 42.4666 39.5668 42.4666 36C42.4666 32.4332 39.5648 29.5312 35.9979 29.5312ZM35.9979 39.6562C33.9819 39.6562 32.3416 38.0161 32.3416 36C32.3416 33.9839 33.9819 32.3438 35.9979 32.3438C38.0139 32.3438 39.6541 33.9839 39.6541 36C39.6541 38.0161 38.014 39.6562 35.9979 39.6562Z" fill="white"/>
<path d="M35.9979 22.7812C28.709 22.7812 22.7791 28.7111 22.7791 36C22.7791 43.2889 28.709 49.2188 35.9979 49.2188C43.2867 49.2188 49.2166 43.2889 49.2166 36C49.2166 28.7111 43.2867 22.7812 35.9979 22.7812ZM35.9979 46.4062C30.2598 46.4062 25.5916 41.7381 25.5916 36C25.5916 30.2619 30.2598 25.5938 35.9979 25.5938C41.7359 25.5938 46.4041 30.2619 46.4041 36C46.4041 41.7381 41.7359 46.4062 35.9979 46.4062Z" fill="white"/>
<path d="M71.9425 1.01696C71.7275 0.270664 70.9483 -0.159226 70.2019 0.0550862L63.0376 2.11974C62.3617 2.22225 61.8438 2.80571 61.8438 3.51009V13.513C61.1804 13.1034 60.4305 12.821 59.6281 12.7009C56.642 9.67058 53.1607 7.27279 49.2701 5.57348C45.0762 3.74156 40.6106 2.8126 35.9977 2.8126C27.133 2.8126 18.7989 6.26465 12.5307 12.533C6.26246 18.8012 2.81027 27.1353 2.81027 36C2.81027 40.2705 3.60564 44.4062 5.17318 48.3181C4.1725 48.7219 3.23495 49.328 2.42495 50.1379C-0.806039 53.369 -0.806039 58.6263 2.42495 61.8574L12.1556 71.5881C12.4303 71.8626 12.7901 71.9999 13.15 71.9999C13.5098 71.9999 13.8698 71.8626 14.1443 71.5881L20.4208 65.3116C25.1932 67.8503 30.5552 69.1875 35.9977 69.1875C42.5622 69.1875 48.9094 67.2738 54.3536 63.6533C55.0003 63.2231 55.176 62.3503 54.7458 61.7036C54.3158 61.0568 53.4428 60.8813 52.7962 61.3114C47.8151 64.6242 42.0062 66.3751 35.9977 66.3751C31.3058 66.3751 26.6803 65.2892 22.5101 63.2226L23.8751 61.8575C27.1061 58.6264 27.1061 53.3691 23.8751 50.138C20.9576 47.2208 16.3883 46.9374 13.1501 49.2886C11.616 48.1746 9.783 47.6532 7.96852 47.7218C6.41265 44.0111 5.6229 40.0732 5.6229 36.0002C5.6229 19.2513 19.249 5.62523 35.9978 5.62523C43.5187 5.62523 50.5749 8.31679 56.1277 13.2517C54.1837 14.2195 52.8441 16.2266 52.8441 18.5416C52.8441 21.7983 55.4936 24.4479 58.7504 24.4479C60.5151 24.4479 62.1003 23.6689 63.1836 22.438C65.2761 26.6292 66.3728 31.2694 66.3728 36.0002C66.3728 42.0089 64.6217 47.8176 61.309 52.7985C60.8789 53.4452 61.0545 54.3182 61.7012 54.7481C61.9407 54.9074 62.2111 54.9837 62.4787 54.9837C62.9337 54.9837 63.3801 54.7633 63.651 54.3561C67.2717 48.9122 69.1853 42.5647 69.1853 36.0002C69.1853 30.0716 67.608 24.2721 64.6199 19.1927C64.6435 18.9788 64.6566 18.7618 64.6566 18.5418V4.58053L70.9809 2.75789C71.7269 2.54246 72.1575 1.76325 71.9425 1.01696ZM14.1442 52.1267C16.2787 49.9923 19.7517 49.9925 21.8862 52.1267C24.0206 54.2611 24.0206 57.7341 21.8862 59.8687L13.1498 68.605L4.41353 59.8687C2.27913 57.7341 2.27913 54.2611 4.41353 52.1267C5.48073 51.0595 6.88276 50.5259 8.28451 50.5259C9.68625 50.5259 11.0883 51.0595 12.1555 52.1267C12.7048 52.6757 13.5951 52.6757 14.1442 52.1267ZM58.7501 21.6354C57.0442 21.6354 55.6563 20.2475 55.6563 18.5416C55.6563 16.8357 57.0442 15.4479 58.7501 15.4479C60.456 15.4479 61.8438 16.8357 61.8438 18.5416C61.8438 20.2475 60.456 21.6354 58.7501 21.6354Z" fill="white"/>
<path d="M35.9979 62.5313C50.6272 62.5313 62.5292 50.6294 62.5292 36C62.5292 35.2235 61.8996 34.5938 61.1229 34.5938C60.3462 34.5938 59.7167 35.2235 59.7167 36C59.7167 49.0785 49.0764 59.7188 35.9979 59.7188C35.2212 59.7188 34.5916 60.3485 34.5916 61.125C34.5916 61.9016 35.2212 62.5313 35.9979 62.5313Z" fill="white"/>
<path d="M34.5916 54.4687C34.5916 55.2452 35.2212 55.875 35.9979 55.875C46.957 55.875 55.8728 46.9592 55.8728 36C55.8728 35.2235 55.2432 34.5938 54.4666 34.5938C53.6899 34.5938 53.0603 35.2235 53.0603 36C53.0603 45.4082 45.4061 53.0625 35.9979 53.0625C35.2212 53.0625 34.5916 53.6922 34.5916 54.4687Z" fill="white"/>
<path d="M58.4711 57.0669C58.1013 57.0669 57.7385 57.2161 57.4755 57.4775C57.214 57.7405 57.0649 58.1019 57.0649 58.4731C57.0649 58.843 57.214 59.2058 57.4755 59.4673C57.7385 59.7289 58.0999 59.8794 58.4711 59.8794C58.841 59.8794 59.2038 59.729 59.4653 59.4673C59.7269 59.2056 59.8774 58.843 59.8774 58.4731C59.8774 58.1019 59.7269 57.7405 59.4653 57.4775C59.2038 57.216 58.841 57.0669 58.4711 57.0669Z" fill="white"/>
</g>
<defs>
<clipPath id="clip0">
<rect width="72" height="72" fill="white"/>
</clipPath>
</defs>
</svg>
