<svg width="72" height="72" viewBox="0 0 72 72" fill="#F95703" xmlns="http://www.w3.org/2000/svg">
<g clip-path="url(#clip0)">
<path d="M71.8612 39.3261C71.2147 32.8238 68.3098 26.6937 63.6812 22.0649C59.7256 18.1095 54.8841 15.5677 49.7898 14.4375V10.8644C51.8705 10.3467 53.4171 8.46333 53.4171 6.22468C53.4171 3.58821 51.2723 1.44336 48.6358 1.44336H38.5106C35.8741 1.44336 33.7293 3.58821 33.7293 6.22468C33.7293 8.46319 35.2759 10.3466 37.3565 10.8644V14.4474C32.2777 15.5824 27.4523 18.1208 23.5079 22.0651C22.6448 22.9282 21.8488 23.8337 21.1202 24.7748C21.0849 24.7721 21.0496 24.7695 21.0136 24.7695H10.9924C10.2159 24.7695 9.58613 25.3991 9.58613 26.1757C9.58613 26.9524 10.2159 27.582 10.9924 27.582H19.2067C18.1756 29.3082 17.3443 31.121 16.7114 32.9872H1.40627C0.629729 32.9872 0 33.6168 0 34.3934C0 35.1701 0.629729 35.7997 1.40627 35.7997H15.9167C15.5115 37.5788 15.2789 39.3894 15.2188 41.205H9.00014C8.2236 41.205 7.59387 41.8346 7.59387 42.6113C7.59387 43.388 8.2236 44.0175 9.00014 44.0175H15.2637C15.3824 45.8378 15.675 47.6485 16.1418 49.4228H7.03136C6.25482 49.4228 5.62509 50.0524 5.62509 50.8291C5.62509 51.6058 6.25482 52.2354 7.03136 52.2354H17.0392C18.4188 55.8848 20.5747 59.3053 23.5079 62.2385C28.1411 66.8716 34.2775 69.7772 40.7865 70.4203C41.7155 70.512 42.6452 70.5574 43.5736 70.5574C49.0612 70.5574 54.479 68.9693 59.0761 65.9756C59.7269 65.5518 59.911 64.6806 59.4871 64.0298C59.0633 63.379 58.1921 63.1949 57.5413 63.6187C47.4784 70.1715 34.0017 68.7547 25.4967 60.2497C15.5175 50.2705 15.5175 34.0333 25.4967 24.054C35.4757 14.0749 51.713 14.0749 61.6923 24.054C70.1861 32.5478 71.6106 46.013 65.0795 56.071C64.6564 56.7224 64.8417 57.5934 65.4929 58.0163C66.1446 58.4393 67.0153 58.2541 67.4382 57.6027C70.9277 52.2286 72.4985 45.738 71.8612 39.3261ZM36.5418 6.22482C36.5418 5.13918 37.425 4.25604 38.5106 4.25604H48.6358C49.7214 4.25604 50.6046 5.13918 50.6046 6.22482C50.6046 7.31047 49.7214 8.19361 48.6358 8.19361H48.3835H38.7628H38.5106C37.425 8.19361 36.5418 7.31033 36.5418 6.22482ZM40.169 13.964V11.0062H46.9772V13.9589C44.7165 13.69 42.4293 13.6917 40.169 13.964Z" fill="#F95703"/>
<path d="M62.6873 59.8369C62.3161 59.8369 61.9547 59.9874 61.6932 60.2489C61.4303 60.5105 61.2811 60.8733 61.2811 61.2432C61.2811 61.613 61.4303 61.9758 61.6932 62.2374C61.9547 62.5004 62.3162 62.6494 62.6873 62.6494C63.0572 62.6494 63.4186 62.5004 63.6815 62.2374C63.9431 61.9758 64.0936 61.613 64.0936 61.2432C64.0936 60.8733 63.9432 60.5105 63.6815 60.2489C63.4186 59.9874 63.057 59.8369 62.6873 59.8369Z" fill="#F95703"/>
<path d="M43.5946 20.3359C31.5656 20.3359 21.7792 30.1222 21.7792 42.1513C21.7792 54.1804 31.5656 63.9667 43.5946 63.9667C55.6236 63.9667 65.41 54.1804 65.41 42.1513C65.41 30.1222 55.6236 20.3359 43.5946 20.3359ZM43.5946 61.1541C33.1163 61.1541 24.5918 52.6294 24.5918 42.1513C24.5918 31.6732 33.1163 23.1485 43.5946 23.1485C54.0729 23.1485 62.5974 31.6732 62.5974 42.1513C62.5974 52.6294 54.0729 61.1541 43.5946 61.1541Z" fill="#F95703"/>
<path d="M52.4901 31.2673L45.5248 38.2325C44.9423 37.9445 44.2872 37.7817 43.5946 37.7817C42.9019 37.7817 42.2468 37.9445 41.6643 38.2325L38.5471 35.1152C37.9978 34.566 37.1076 34.566 36.5582 35.1152C36.009 35.6643 36.009 36.5548 36.5582 37.1039L39.6754 40.2212C39.3873 40.8037 39.2247 41.4589 39.2247 42.1515C39.2247 44.561 41.1849 46.5213 43.5946 46.5213C46.0042 46.5213 47.9644 44.561 47.9644 42.1515C47.9644 41.4589 47.8017 40.8037 47.5137 40.2212L54.2745 33.4604L54.4788 33.2561C55.028 32.7069 55.028 31.8165 54.4788 31.2673C53.9297 30.7182 53.0395 30.7182 52.4901 31.2673ZM43.5946 43.7089C42.7359 43.7089 42.0373 43.0103 42.0373 42.1516C42.0373 41.2929 42.7359 40.5943 43.5946 40.5943C44.4533 40.5943 45.1519 41.2929 45.1519 42.1516C45.1519 43.0103 44.4533 43.7089 43.5946 43.7089Z" fill="#F95703"/>
<path d="M58.6302 40.7622H57.3273C56.5508 40.7622 55.9211 41.3918 55.9211 42.1685C55.9211 42.9451 56.5508 43.5747 57.3273 43.5747H58.6302C59.4068 43.5747 60.0365 42.9451 60.0365 42.1685C60.0365 41.3918 59.4068 40.7622 58.6302 40.7622Z" fill="#F95703"/>
<path d="M29.8616 40.728H28.5589C27.7824 40.728 27.1526 41.3576 27.1526 42.1343C27.1526 42.9109 27.7824 43.5405 28.5589 43.5405H29.8616C30.6382 43.5405 31.2679 42.9109 31.2679 42.1343C31.2679 41.3576 30.6382 40.728 29.8616 40.728Z" fill="#F95703"/>
<path d="M43.6117 29.8247C44.3882 29.8247 45.0179 29.1951 45.0179 28.4185V27.1157C45.0179 26.3391 44.3882 25.7095 43.6117 25.7095C42.8352 25.7095 42.2054 26.3391 42.2054 27.1157V28.4185C42.2054 29.1951 42.8352 29.8247 43.6117 29.8247Z" fill="#F95703"/>
<path d="M43.5774 54.4785C42.8009 54.4785 42.1711 55.1081 42.1711 55.8848V57.1875C42.1711 57.9642 42.8009 58.5938 43.5774 58.5938C44.3539 58.5938 44.9836 57.9642 44.9836 57.1875V55.8848C44.9836 55.1081 44.3539 54.4785 43.5774 54.4785Z" fill="#F95703"/>
<path d="M1.40625 49.4224C1.03641 49.4224 0.673594 49.5728 0.412031 49.8344C0.150469 50.096 0 50.4588 0 50.8286C0 51.1999 0.150328 51.5613 0.412031 51.8228C0.673734 52.0844 1.03641 52.2349 1.40625 52.2349C1.77609 52.2349 2.13891 52.0844 2.40033 51.8228C2.66189 51.5613 2.8125 51.1985 2.8125 50.8286C2.8125 50.4588 2.66203 50.096 2.40033 49.8344C2.13891 49.5728 1.77609 49.4224 1.40625 49.4224Z" fill="#F95703"/>
</g>
<defs>
<clipPath id="clip0">
<rect width="72" height="72" fill="#F95703"/>
</clipPath>
</defs>
</svg>
