<svg width="24" height="24" viewBox="0 0 24 24" fill="none" xmlns="http://www.w3.org/2000/svg">
<path d="M20.9991 6.66195C20.325 6.94721 19.6101 7.13455 18.878 7.21778C19.6496 6.77636 20.2271 6.08164 20.5028 5.26309C19.7787 5.67531 18.9849 5.96421 18.1575 6.12048C17.6017 5.55163 16.865 5.17436 16.062 5.04733C15.2589 4.92031 14.4345 5.05063 13.7169 5.41806C12.9992 5.78548 12.4286 6.36941 12.0937 7.07907C11.7588 7.78873 11.6783 8.58436 11.8649 9.34226C10.3965 9.27186 8.95997 8.90683 7.6486 8.27087C6.33724 7.63491 5.18035 6.74224 4.25304 5.65082C3.9248 6.19013 3.75232 6.80321 3.75324 7.42727C3.75324 8.65212 4.40493 9.73422 5.3957 10.3678C4.80937 10.3501 4.23594 10.1986 3.72321 9.92597V9.96989C3.72339 10.7856 4.01848 11.5762 4.55844 12.2076C5.0984 12.839 5.85001 13.2723 6.68583 13.4341C6.14154 13.5752 5.57082 13.596 5.01688 13.4949C5.25253 14.1971 5.71184 14.8112 6.33049 15.2512C6.94914 15.6912 7.69615 15.9352 8.46693 15.9489C7.70088 16.5244 6.82374 16.9498 5.88569 17.2009C4.94763 17.4519 3.96705 17.5236 3 17.4119C4.68812 18.4504 6.65324 19.0018 8.66032 19C15.4536 19 19.1686 13.6166 19.1686 8.94778C19.1686 8.79573 19.1641 8.64199 19.1571 8.49163C19.8802 7.99169 20.5043 7.37238 21 6.6628L20.9991 6.66195Z" fill="white"/>
</svg>
