<svg width="16" height="16" viewBox="0 0 16 16" fill="none" xmlns="http://www.w3.org/2000/svg">
<path d="M14 2C14.1769 2 14.3464 2.07024 14.4714 2.19526C14.5965 2.32029 14.6667 2.48986 14.6667 2.66667V13.3333C14.6667 13.5101 14.5965 13.6797 14.4714 13.8047C14.3464 13.9298 14.1769 14 14 14H2.00004C1.82323 14 1.65366 13.9298 1.52864 13.8047C1.40361 13.6797 1.33337 13.5101 1.33337 13.3333V2.66667C1.33337 2.48986 1.40361 2.32029 1.52864 2.19526C1.65366 2.07024 1.82323 2 2.00004 2H14ZM6.26604 5.33333H4.93271L2.79937 10.6667H4.23537L4.50204 10H6.69537L6.96204 10.6667H8.39871L6.26604 5.33333ZM12.6667 5.33333H11.3334V6.66667H10.6667C10.1461 6.66616 9.64582 6.86868 9.27216 7.23118C8.8985 7.59368 8.68092 8.0876 8.66564 8.60798C8.65036 9.12836 8.8386 9.63418 9.19035 10.018C9.5421 10.4018 10.0296 10.6333 10.5494 10.6633L10.6667 10.6667H12.6667V5.33333ZM11.3334 8V9.33333H10.6667L10.5887 9.32867C10.4267 9.30939 10.2773 9.23136 10.169 9.10936C10.0606 8.98735 10.0008 8.82984 10.0008 8.66667C10.0008 8.50349 10.0606 8.34598 10.169 8.22398C10.2773 8.10197 10.4267 8.02394 10.5887 8.00467L10.6667 8H11.3334ZM5.59937 7.25667L6.16271 8.66667H5.03471L5.59937 7.25667Z" fill="#B1B1B1"/>
</svg>
