<svg width="16" height="16" viewBox="0 0 16 16" fill="none" xmlns="http://www.w3.org/2000/svg">
<path d="M12.6667 13.3332H3.33337V13.9998C3.33337 14.1766 3.26314 14.3462 3.13811 14.4712C3.01309 14.5963 2.84352 14.6665 2.66671 14.6665H2.00004C1.82323 14.6665 1.65366 14.5963 1.52864 14.4712C1.40361 14.3462 1.33337 14.1766 1.33337 13.9998V7.99984L3.00871 3.53184C3.104 3.27763 3.27461 3.05857 3.49774 2.90394C3.72088 2.74931 3.9859 2.66647 4.25737 2.6665H11.7427C12.0142 2.66647 12.2792 2.74931 12.5023 2.90394C12.7255 3.05857 12.8961 3.27763 12.9914 3.53184L14.6667 7.99984V13.9998C14.6667 14.1766 14.5965 14.3462 14.4714 14.4712C14.3464 14.5963 14.1769 14.6665 14 14.6665H13.3334C13.1566 14.6665 12.987 14.5963 12.862 14.4712C12.7369 14.3462 12.6667 14.1766 12.6667 13.9998V13.3332ZM2.75737 7.99984H13.2427L11.7427 3.99984H4.25737L2.75737 7.99984ZM4.33337 11.3332C4.59859 11.3332 4.85295 11.2278 5.04048 11.0403C5.22802 10.8527 5.33337 10.5984 5.33337 10.3332C5.33337 10.068 5.22802 9.8136 5.04048 9.62606C4.85295 9.43853 4.59859 9.33317 4.33337 9.33317C4.06816 9.33317 3.8138 9.43853 3.62627 9.62606C3.43873 9.8136 3.33337 10.068 3.33337 10.3332C3.33337 10.5984 3.43873 10.8527 3.62627 11.0403C3.8138 11.2278 4.06816 11.3332 4.33337 11.3332ZM11.6667 11.3332C11.9319 11.3332 12.1863 11.2278 12.3738 11.0403C12.5614 10.8527 12.6667 10.5984 12.6667 10.3332C12.6667 10.068 12.5614 9.8136 12.3738 9.62606C12.1863 9.43853 11.9319 9.33317 11.6667 9.33317C11.4015 9.33317 11.1471 9.43853 10.9596 9.62606C10.7721 9.8136 10.6667 10.068 10.6667 10.3332C10.6667 10.5984 10.7721 10.8527 10.9596 11.0403C11.1471 11.2278 11.4015 11.3332 11.6667 11.3332Z" fill="#B1B1B1"/>
</svg>
